<?xml version="1.0" encoding="utf-8"?>
<!-- Generator: Adobe Illustrator 19.0.0, SVG Export Plug-In . SVG Version: 6.00 Build 0)  -->
<svg version="1.1" id="Слой_1" xmlns="http://www.w3.org/2000/svg" xmlns:xlink="http://www.w3.org/1999/xlink" x="0px" y="0px"
	 viewBox="0 26.4 285 263.5" style="enable-background:new 0 26.4 285 263.5;" xml:space="preserve">
<style type="text/css">
	.st0{fill:#588DCA;}
	.st1{fill:#E9A3C8;}
	.st2{fill:#9ABFE6;}
	.st3{fill:#FFFFFF;}
	.st4{fill:#575756;}
	.st5{fill:#FFFBDC;}
	.st6{fill:#2595CA;}
	.st7{fill:#6F6F6E;}
	.st8{fill:#F29392;}
	.st9{fill-rule:evenodd;clip-rule:evenodd;fill:#FFFAFA;}
	.st10{fill:#FFFAFA;}
</style>
<polygon id="XMLID_68_" class="st0" points="-147.3,-1.3 -147.4,-1.6 -147.6,-1.8 -147.9,-2.1 -148.3,-2.3 -148.7,-2.3 -149,-2.4 
	-149.3,-2.4 -149.7,-2.3 -150,-2.2 -150.5,-2 -150.9,-1.6 -151.2,-1.1 -151.3,-0.8 -151.3,-0.6 -151.3,-0.3 -151.3,0 -151.2,0.3 
	-151.2,0.5 -151,0.8 -150.8,1 -150.7,1.2 -150.5,1.4 -150.3,1.5 -150,1.7 -149.6,1.8 -149.3,1.8 -148.9,1.8 -148.5,1.7 -148.1,1.5 
	-147.7,1.3 -147.5,1 -147.3,0.6 -147.1,0.2 -147.1,-0.2 -147.1,-0.5 -147.1,-0.9 "/>
<polygon id="XMLID_67_" class="st1" points="-147.8,-1 -148,-1.1 -148.2,-1.1 -148.3,-0.9 -148.4,-0.5 -148.6,-0.2 -149,0.3 
	-149.5,0.6 -149.6,0.8 -149.5,1.1 -149.3,1.2 -148.8,1.2 -148.3,1 -147.9,0.6 -147.7,0.2 -147.6,-0.2 -147.6,-0.5 -147.7,-0.8 "/>
<polygon id="XMLID_66_" class="st0" points="-92.2,44.8 -92.9,44.2 -93.8,43.9 -94.9,43.6 -96.4,43.5 -97.3,43.7 -98.3,44 
	-99.2,44.4 -100.2,45 -100.9,45.8 -102,47.1 -102.6,48.7 -102.8,50.3 -102.7,51.2 -102.4,52 -102,52.9 -101.7,53.6 -101.2,54.2 
	-100.7,54.8 -99.9,55.4 -99.1,55.8 -98.5,56.1 -97.8,56.4 -97,56.6 -96.1,56.6 -94.8,56.5 -93.8,56.1 -92.7,55.5 -91.7,54.8 
	-90.7,53.6 -90.1,52.5 -89.8,51.4 -89.7,50.1 -89.8,48.7 -90.1,47.6 -90.5,46.7 -91.3,45.7 "/>
<polygon id="XMLID_65_" class="st2" points="-93.3,46.5 -94,46.2 -94.4,46.5 -94.5,47.1 -94.2,48.4 -94.3,49.7 -95,51.5 -95.9,52.8 
	-95.8,53.7 -95.2,54.3 -94.5,54.4 -93.2,53.7 -92.1,52.4 -91.6,50.9 -91.4,49.7 -91.6,48.2 -92.2,47.3 -92.8,46.8 "/>
<polygon id="XMLID_64_" points="-173,135.2 -172.9,138.1 -172,141.1 -171.1,144.9 -171.2,147.5 -171.1,148.7 -170.3,149.6 
	-165.2,151.2 -160.7,151.1 -157.7,149.7 -155.6,148.1 -154.3,148 -153.7,148.7 -154,151.3 -155.1,153.5 -157.6,157 -161.9,159.7 
	-168.1,160.5 -171.6,160.2 -174.9,158.9 -177,157.6 -178.3,157.7 -179.1,159 -179.8,159.8 -180.5,159.8 -181.8,159.7 -183.2,159.4 
	-183.9,159.1 -184,158.4 -184.3,156.8 -184.5,153.5 -184.1,151.1 -183.6,149.3 -184.7,146.1 -186.3,140 -187.2,135.7 -186.3,134.5 
	-181.6,134.1 -185.1,128.8 -185.6,127.2 -185.1,125.6 -184.8,123.1 -185.5,119.6 -186.4,117 -187.8,116.3 -189.8,114.9 
	-191.5,113.3 -194.1,109.6 -195.8,106.1 -196.7,103.1 -199.7,92.9 -200.6,91.1 -201.2,90.5 -215.7,81.2 -226.5,73.1 -230.7,68.5 
	-237.1,61.6 -243.9,50.7 -250,38.2 -252.9,30.9 -254.4,24 -256.7,11.9 -261.1,6.4 -263.5,3 -266.7,-0.5 -270.6,-3.6 -277.6,-7.4 
	-282.7,-9.2 -286.4,-10.2 -291.4,-11 -296.5,-11.6 -299.2,-13.1 -300.1,-15 -300.2,-16.9 -299.3,-19.5 -304.1,-20.9 -306.6,-22.2 
	-308.2,-23.7 -309.2,-25.3 -308.9,-27.6 -308,-29.6 -306.7,-31.1 -303.5,-32.6 -300.1,-33 -296.1,-32.8 -295.6,-34.3 -294.5,-35.8 
	-292.5,-36.5 -290.1,-36.5 -287.8,-35.8 -277.3,-31.9 -267.2,-27.5 -260.3,-23.1 -253.9,-18 -248.9,-12.5 -243.7,-3.7 -242.6,0.6 
	-242.3,0.6 -237.3,3.1 -224.7,11.3 -220.3,14.2 -214.3,16.5 -209,17.6 -205.2,18.4 -200,18.5 -193.3,17.9 -186.6,17 -181.7,15.8 
	-175.5,14 -169,11.7 -164.5,9.5 -160.5,7.1 -151,0.3 -145,-5.1 -140.5,-10.4 -135.6,-16.3 -131.7,-25.4 -128,-32.2 -125.8,-35 
	-122.4,-37.9 -115.8,-41 -109.7,-42.5 -103.2,-42.9 -96.9,-41.8 -90.4,-39.3 -85.9,-36.5 -80,-29.6 -77.4,-24.8 -74.5,-17.8 
	-69.7,-15 -62.2,-9.8 -52.3,-0.6 -44.6,7.3 -38.9,15.8 -33.6,25.4 -31.3,31.2 -31.6,33.6 -33,34.9 -35.3,36.2 -38.3,36.3 
	-43.1,36.7 -51.6,36.2 -65.6,33.6 -82.7,28.8 -88.1,28 -90.9,28.8 -92.3,30.8 -93.2,34.3 -94.4,43.5 -99.4,61.1 -103,69.1 
	-109.9,78.7 -114.8,83.7 -120,88.1 -123.5,90.5 -133.5,96.1 -134.8,97 -135.6,97.8 -136.6,102.5 -138.6,108 -140.4,111.1 
	-142.5,112.7 -142.8,113 -143.2,118.8 -143.5,123.4 -142.8,126.1 -141.8,129.7 -141.5,129.7 -138,129.1 -136.1,129.1 -135.8,130.9 
	-135.7,133.9 -134.9,136.9 -133.9,140.7 -134,143.3 -133.9,144.5 -133.1,145.3 -128.1,146.9 -123.5,146.9 -120.6,145.4 
	-118.4,143.8 -117.2,143.8 -116.6,144.5 -116.8,147 -117.9,149.3 -120.5,152.8 -124.8,155.5 -130.9,156.3 -134.4,155.9 
	-137.8,154.7 -139.8,153.4 -141.1,153.4 -142,154.7 -142.4,155.3 -143.4,155.5 -145.7,155.1 -146.5,155 -146.9,154.2 -147.1,152.5 
	-147.4,149.3 -146.9,146.8 -146.5,145 -147.6,141.9 -149.2,135.7 -150,131.5 -149.2,130.2 -145.2,130 -148.9,124.2 -149.4,122.7 
	-149,121.1 -148.7,118.5 -149.3,115 -150.2,112.8 -150.7,112.5 -154.3,110.8 -155.7,109.7 -157.6,107.4 -158.6,105.5 -160.3,101.8 
	-160.4,101.4 -161.9,101 -169.7,100.3 -170.5,100.4 -170.8,100.6 -171.1,101.9 -172.1,106.7 -174.1,112.2 -175,114.1 -175.9,115.3 
	-177.2,116.4 -178.3,116.9 -178.8,117.4 -179.3,123.3 -179.6,128 -178.9,130.7 -178.1,133.8 -175.1,133.3 -173.3,133.3 "/>
<polygon id="XMLID_63_" class="st3" points="-97.4,46.3 -99.1,53.6 -100.7,59.6 -103.8,66.6 -106.6,70.7 -114.7,80 -124.1,87.5 
	-130.8,91.3 -139,95.1 -148.3,97.5 -155.2,98.3 -162.9,98.1 -169.7,97.4 -179.1,95.5 -193.8,89.8 -205.4,83.4 -221.8,72.2 
	-232.6,61.5 -240.5,50 -247.6,38.3 -251,28.4 -252,21.9 -252,20 -251.7,18.3 -251.3,17.6 -250.4,17 -249.3,16.6 -249.8,14.7 
	-249.6,13 -249,11.8 -247.8,10.6 -246.9,10.3 -244.1,10 -243.5,8.5 -242.8,7.4 -241.5,6.8 -239.9,6.7 -237.6,7.2 -235.6,8.1 
	-226.1,13.4 -217.6,17.5 -204.9,20 -191.8,19.4 -179.7,17.1 -165,12 -155,6.9 -154,6.6 -152.6,6.5 -151.3,6.8 -150.5,7.2 
	-149.2,10.2 -147.7,12.1 -146.7,13.3 -145,14.2 -143.5,14.8 -141.7,15.2 -139.7,15.2 -136.3,15.1 -136.2,17 -135.8,19.1 
	-135.3,20.5 -133.6,22.4 -132,23.7 -129.6,24.2 -127.3,24.2 -123.6,24 -123.4,25.9 -122.8,27.6 -121.9,29.1 -120.8,30.1 
	-119.2,30.9 -117.5,31.3 -114.8,31.5 -110.9,31 -110.6,33.6 -110,35.2 -108.7,36.6 -107.5,37.5 -106.1,38.4 -104.2,39.2 
	-102.6,39.6 -100.8,39.4 -98.8,38.7 -98.2,38.7 -97.3,39.4 -97.1,41.1 "/>
<polygon id="XMLID_62_" class="st4" points="-109.2,-22.7 -109.7,-23.2 -109.8,-23.6 -109.2,-25.4 -108.2,-29.4 -107.9,-31.5 
	-107.6,-31.6 -107.1,-31.4 -107,-30.5 -107,-27.8 -107.3,-24.3 -107.7,-22.2 -108.5,-22.4 "/>
<polygon id="XMLID_61_" class="st4" points="-113.8,-22.5 -114.4,-22.9 -114.6,-23.2 -114.6,-25.1 -115.2,-29.1 -115.7,-31.2 
	-115.4,-31.5 -114.9,-31.4 -114.4,-30.6 -113.5,-28.1 -112.5,-24.7 -112.1,-22.6 -112.9,-22.6 "/>
<polygon id="XMLID_60_" class="st4" points="-116,-21.3 -116.7,-21.3 -117.1,-21.5 -117.9,-23.2 -120.2,-26.5 -121.6,-28.2 
	-121.5,-28.5 -121,-28.7 -120.2,-28.2 -118.2,-26.4 -115.9,-23.8 -114.6,-22 -115.3,-21.6 "/>
<polygon id="XMLID_59_" class="st5" points="-108.1,-22.7 -109.3,-23.3 -110.6,-23.5 -112.3,-23.6 -114.3,-23.2 -115.6,-22.7 
	-116.9,-22 -118,-21 -119.2,-19.9 -120,-18.7 -121,-16.5 -121.4,-14.1 -121.1,-11.8 -120.7,-10.6 -120.1,-9.5 -119.3,-8.4 
	-118.5,-7.6 -117.7,-6.8 -116.8,-6.2 -115.6,-5.6 -114.3,-5.3 -113.4,-5.1 -112.3,-4.9 -111.1,-4.9 -109.9,-5.1 -108.1,-5.7 
	-106.8,-6.5 -105.5,-7.7 -104.3,-9.1 -103.4,-10.9 -102.9,-12.7 -102.8,-14.4 -103,-16.2 -103.6,-18 -104.4,-19.5 -105.3,-20.6 
	-106.6,-21.8 "/>
<polygon id="XMLID_58_" class="st6" points="-108.7,-20.4 -109.5,-20.8 -110.5,-20.9 -111.7,-21 -113.1,-20.7 -114,-20.3 
	-114.9,-19.8 -115.8,-19.2 -116.6,-18.4 -117.1,-17.5 -117.9,-16 -118.2,-14.2 -117.9,-12.6 -117.6,-11.7 -117.2,-10.9 
	-116.6,-10.2 -116.1,-9.6 -115.5,-9.1 -114.9,-8.6 -114,-8.2 -113.1,-7.9 -112.4,-7.8 -111.6,-7.7 -110.8,-7.7 -109.9,-7.8 
	-108.7,-8.3 -107.8,-8.8 -106.8,-9.7 -106,-10.6 -105.3,-12 -105,-13.2 -104.9,-14.4 -105,-15.7 -105.4,-17 -106,-18.1 
	-106.6,-18.9 -107.6,-19.7 "/>
<polygon id="XMLID_57_" points="-109.4,-17.8 -109.9,-18 -110.4,-18.1 -111,-18.2 -111.8,-18 -112.3,-17.8 -112.7,-17.6 
	-113.2,-17.2 -113.6,-16.8 -113.9,-16.3 -114.3,-15.5 -114.5,-14.5 -114.4,-13.6 -114.2,-13.2 -114,-12.8 -113.7,-12.4 -113.4,-12 
	-113.1,-11.8 -112.7,-11.5 -112.3,-11.3 -111.8,-11.2 -111.4,-11.1 -111,-11 -110.6,-11 -110.1,-11.1 -109.4,-11.3 -108.9,-11.6 
	-108.4,-12.1 -107.9,-12.6 -107.6,-13.3 -107.4,-14 -107.4,-14.6 -107.4,-15.3 -107.7,-16 -108,-16.6 -108.3,-17 -108.8,-17.5 "/>
<polygon id="XMLID_56_" class="st3" points="-113.6,-17 -113.8,-17.1 -113.9,-17.1 -114.2,-17.1 -114.4,-17.1 -114.6,-17 
	-114.8,-16.9 -114.9,-16.8 -115.1,-16.6 -115.2,-16.5 -115.3,-16.2 -115.4,-15.9 -115.4,-15.5 -115.3,-15.4 -115.2,-15.2 
	-115.1,-15.1 -115,-15 -114.9,-14.9 -114.8,-14.8 -114.6,-14.7 -114.4,-14.7 -114.3,-14.6 -114.2,-14.6 -114,-14.6 -113.8,-14.6 
	-113.6,-14.7 -113.4,-14.8 -113.2,-15 -113.1,-15.2 -113,-15.4 -112.9,-15.7 -112.9,-15.9 -112.9,-16.1 -113,-16.4 -113.1,-16.6 
	-113.2,-16.7 -113.4,-16.9 "/>
<polygon id="XMLID_55_" class="st4" points="-46.8,31.7 -55,30.5 -63.9,27.6 -69.6,25.5 -74.7,23.3 -80.4,19.8 -86,15.5 -89.7,12.2 
	-91.4,11.9 -92.6,11.7 -95.1,13.7 -96.3,14.2 -97.1,13.7 -97.4,13.1 -97.5,12.4 -97.4,11.9 -94.8,10.5 -93.9,9.8 -93.3,9 -93,8.1 
	-93,5.4 -93.3,3.4 -93.4,2.8 -93,2.4 -92.3,2.3 -91.5,2.6 -90.9,3.4 -90.5,4.4 -90.2,6.5 -90.3,7.9 -89.8,9.2 -84.8,14.1 
	-76.6,20.2 -64.9,25.8 -59.4,27.8 -53.7,29.2 -43.4,31.1 -43,31.7 -43.1,32.2 -43.8,32.2 "/>
<polygon id="XMLID_54_" class="st4" points="-94,-25.8 -94.6,-25.6 -95,-25.7 -96.3,-27.1 -99.4,-29.8 -101.1,-31.1 -101,-31.4 
	-100.6,-31.7 -99.8,-31.5 -97.4,-30.2 -94.4,-28.2 -92.8,-26.9 -93.3,-26.3 "/>
<polygon id="XMLID_53_" class="st4" points="-90.5,-28.2 -91.1,-28.4 -91.4,-28.6 -91.9,-30.5 -93.3,-34.3 -94.2,-36.2 -94,-36.5 
	-93.5,-36.6 -92.9,-35.9 -91.4,-33.7 -89.7,-30.6 -88.9,-28.6 -89.6,-28.4 "/>
<polygon id="XMLID_52_" class="st4" points="-86.5,-27.8 -87.1,-28.1 -87.3,-28.5 -87.3,-30.4 -87.7,-34.4 -88,-36.5 -87.8,-36.8 
	-87.3,-36.7 -86.8,-35.9 -86,-33.4 -85.1,-29.9 -84.9,-27.8 -85.6,-27.8 "/>
<polygon id="XMLID_51_" class="st5" points="-84.9,-29.5 -86,-30 -87.2,-30.2 -88.6,-30.3 -90.4,-30 -91.6,-29.5 -92.6,-28.9 
	-93.7,-28.1 -94.7,-27 -95.4,-26 -96.3,-24.1 -96.7,-21.9 -96.4,-19.9 -96,-18.8 -95.5,-17.8 -94.8,-16.9 -94.1,-16.1 -93.4,-15.5 
	-92.6,-15 -91.5,-14.4 -90.4,-14.1 -89.6,-13.9 -88.6,-13.8 -87.6,-13.8 -86.5,-14 -84.9,-14.5 -83.8,-15.2 -82.6,-16.2 
	-81.6,-17.5 -80.7,-19.1 -80.3,-20.6 -80.2,-22.2 -80.4,-23.8 -80.9,-25.4 -81.6,-26.7 -82.4,-27.7 -83.6,-28.7 "/>
<polygon id="XMLID_50_" class="st6" points="-85.1,-28 -85.9,-28.4 -86.8,-28.5 -87.8,-28.6 -89.1,-28.3 -90,-28 -90.7,-27.5 
	-91.5,-26.9 -92.2,-26.2 -92.7,-25.4 -93.4,-24.1 -93.7,-22.5 -93.4,-21 -93.2,-20.3 -92.8,-19.5 -92.3,-18.9 -91.8,-18.3 
	-91.3,-17.8 -90.7,-17.5 -89.9,-17.1 -89.1,-16.8 -88.5,-16.7 -87.8,-16.6 -87.1,-16.6 -86.3,-16.8 -85.1,-17.1 -84.3,-17.6 
	-83.4,-18.4 -82.7,-19.3 -82.1,-20.5 -81.8,-21.6 -81.7,-22.7 -81.9,-23.9 -82.2,-25 -82.8,-26 -83.3,-26.7 -84.2,-27.4 "/>
<polygon id="XMLID_49_" points="-85.8,-25.7 -86.2,-25.9 -86.7,-26 -87.2,-26 -87.9,-25.9 -88.4,-25.7 -88.8,-25.5 -89.2,-25.2 
	-89.6,-24.8 -89.9,-24.3 -90.2,-23.6 -90.4,-22.8 -90.3,-22 -90.1,-21.6 -89.9,-21.2 -89.6,-20.8 -89.4,-20.5 -89.1,-20.3 
	-88.8,-20.1 -88.4,-19.9 -87.9,-19.7 -87.6,-19.7 -87.2,-19.6 -86.8,-19.6 -86.4,-19.7 -85.8,-19.9 -85.4,-20.2 -84.9,-20.6 
	-84.5,-21 -84.2,-21.7 -84,-22.3 -84,-22.9 -84,-23.5 -84.2,-24.1 -84.5,-24.6 -84.8,-25 -85.3,-25.4 "/>
<polygon id="XMLID_48_" class="st3" points="-89.6,-25 -89.7,-25.1 -89.9,-25.1 -90.1,-25.1 -90.3,-25.1 -90.5,-25 -90.6,-24.9 
	-90.8,-24.8 -90.9,-24.7 -91,-24.5 -91.1,-24.3 -91.2,-24 -91.1,-23.7 -91.1,-23.5 -91,-23.4 -90.9,-23.3 -90.8,-23.2 -90.7,-23.1 
	-90.6,-23 -90.5,-22.9 -90.3,-22.9 -90.2,-22.9 -90.1,-22.8 -89.9,-22.8 -89.8,-22.9 -89.6,-22.9 -89.4,-23 -89.2,-23.2 
	-89.1,-23.3 -89,-23.6 -88.9,-23.8 -88.9,-24 -88.9,-24.2 -89,-24.4 -89.1,-24.6 -89.2,-24.7 -89.4,-24.9 "/>
<polygon id="XMLID_47_" class="st7" points="-70.4,-7.8 -72.2,-7.3 -73.6,-5.6 -74.5,-2.4 -73.9,-0.5 -71.8,1.8 -63,6.9 -53.8,13.8 
	-44.9,22 -41.8,23.9 -40.4,23.7 -40,22.5 -41.4,19.3 -45.2,12.9 -50.9,5.8 -59,-2 -64.7,-6.4 -68,-7.7 "/>
<polygon id="XMLID_46_" class="st4" points="-82.4,-11.3 -82.6,-11.4 -82.8,-11.5 -83.2,-11.5 -83.5,-11.4 -83.8,-11.3 -84,-11.2 
	-84.2,-11 -84.5,-10.8 -84.6,-10.6 -84.8,-10.2 -84.9,-9.7 -84.8,-9.2 -84.7,-9 -84.6,-8.8 -84.5,-8.6 -84.3,-8.4 -84.2,-8.3 
	-84,-8.2 -83.8,-8.1 -83.5,-8 -83.3,-8 -83.1,-7.9 -82.9,-7.9 -82.7,-8 -82.4,-8.1 -82.1,-8.3 -81.8,-8.5 -81.6,-8.7 -81.4,-9.1 
	-81.4,-9.4 -81.3,-9.7 -81.4,-10.1 -81.5,-10.4 -81.6,-10.7 -81.8,-10.9 -82.1,-11.2 "/>
<polygon id="XMLID_45_" class="st4" points="-77.7,-13.7 -77.8,-13.8 -78,-13.8 -78.2,-13.8 -78.5,-13.7 -78.7,-13.7 -78.9,-13.6 
	-79,-13.4 -79.2,-13.3 -79.3,-13.1 -79.5,-12.8 -79.5,-12.5 -79.5,-12.1 -79.4,-12 -79.3,-11.8 -79.2,-11.7 -79.1,-11.6 -79,-11.5 
	-78.9,-11.4 -78.7,-11.3 -78.5,-11.2 -78.4,-11.2 -78.2,-11.2 -78.1,-11.2 -77.9,-11.2 -77.7,-11.3 -77.5,-11.4 -77.3,-11.6 
	-77.1,-11.8 -77,-12 -76.9,-12.3 -76.9,-12.5 -76.9,-12.8 -77,-13 -77.1,-13.2 -77.3,-13.4 -77.4,-13.6 "/>
<polygon id="XMLID_44_" points="-149.8,33.8 -151.2,32.2 -154.3,30.9 -158.6,29.9 -162.3,29.7 -168.2,30 -178.1,31.1 -185.1,29.6 
	-190.4,27.4 -193.6,26.8 -196.1,26.7 -198.7,27.2 -200.8,28 -203.9,30.2 -205.9,29.7 -207.7,29.4 -209.4,29.6 -210.7,30 -212,30.7 
	-213.5,32.1 -215.2,34.9 -219.3,35.5 -220.8,36.3 -221.7,37.1 -223.2,39.2 -223.5,41.7 -223.3,43.8 -222.5,45.8 -218.8,50 
	-210.4,59.6 -204.5,65.3 -198.4,69.8 -191.8,74.1 -186.8,76.2 -181.5,77.5 -176.1,78.3 -169,77.2 -162.8,75 -158.1,72 -154,67.6 
	-149.3,61.1 -147.4,54.5 -146.8,48 -146.9,42.8 -147.1,39.5 -148.4,36.1 "/>
<polygon id="XMLID_43_" class="st0" points="-93.4,53.2 -94.2,52.6 -95,52.3 -96.2,51.9 -97.6,51.9 -98.6,52.1 -99.5,52.4 
	-100.5,52.8 -101.5,53.4 -102.2,54.1 -103.2,55.5 -103.9,57.1 -104,58.7 -103.9,59.6 -103.7,60.4 -103.3,61.3 -102.9,62 
	-102.5,62.6 -101.9,63.2 -101.2,63.8 -100.4,64.2 -99.8,64.5 -99,64.8 -98.3,65 -97.3,65 -96,64.9 -95.1,64.5 -93.9,63.9 
	-92.9,63.2 -92,62 -91.4,60.9 -91.1,59.8 -90.9,58.4 -91,57.1 -91.4,56 -91.8,55.1 -92.5,54.1 "/>
<polygon id="XMLID_42_" class="st2" points="-94.6,54.9 -95.3,54.6 -95.7,54.9 -95.7,55.5 -95.5,56.8 -95.6,58.1 -96.3,59.9 
	-97.1,61.2 -97.1,62.1 -96.5,62.7 -95.8,62.8 -94.5,62.1 -93.4,60.8 -92.8,59.3 -92.7,58.1 -92.9,56.6 -93.4,55.7 -94.1,55.2 "/>
<polygon id="XMLID_41_" class="st0" points="-102.4,50 -103,49.5 -103.8,49.1 -104.7,48.9 -106,48.8 -106.8,49 -107.6,49.2 
	-108.4,49.6 -109.3,50.1 -109.9,50.7 -110.8,51.9 -111.3,53.3 -111.4,54.7 -111.4,55.4 -111.2,56.1 -110.8,56.9 -110.5,57.5 
	-110.1,58 -109.6,58.5 -109,59 -108.3,59.4 -107.8,59.6 -107.2,59.9 -106.5,60 -105.7,60 -104.6,59.9 -103.8,59.6 -102.8,59.1 
	-101.9,58.5 -101.1,57.5 -100.6,56.5 -100.4,55.6 -100.2,54.4 -100.3,53.3 -100.6,52.3 -101,51.6 -101.6,50.7 "/>
<polygon id="XMLID_40_" class="st2" points="-103.4,51.4 -103.9,51.1 -104.3,51.4 -104.3,51.9 -104.1,53 -104.2,54.1 -104.8,55.7 
	-105.5,56.8 -105.5,57.6 -105,58.1 -104.4,58.2 -103.3,57.6 -102.4,56.5 -101.9,55.2 -101.7,54.1 -101.9,52.9 -102.4,52.1 
	-102.9,51.6 "/>
<polygon id="XMLID_39_" class="st0" points="-110.6,43.8 -111.2,43.3 -112,43 -112.9,42.7 -114.2,42.7 -115,42.8 -115.8,43.1 
	-116.6,43.4 -117.5,44 -118.1,44.6 -119,45.7 -119.5,47.1 -119.6,48.5 -119.6,49.2 -119.4,50 -119,50.7 -118.7,51.3 -118.3,51.8 
	-117.9,52.3 -117.2,52.8 -116.5,53.2 -116,53.5 -115.4,53.7 -114.7,53.8 -113.9,53.9 -112.8,53.8 -112,53.5 -111,53 -110.2,52.3 
	-109.3,51.3 -108.8,50.4 -108.6,49.4 -108.4,48.3 -108.5,47.1 -108.8,46.2 -109.2,45.4 -109.8,44.5 "/>
<polygon id="XMLID_38_" class="st2" points="-111.6,45.2 -112.1,45 -112.5,45.2 -112.5,45.7 -112.3,46.9 -112.4,47.9 -113,49.5 
	-113.7,50.6 -113.7,51.4 -113.2,51.9 -112.6,52 -111.5,51.4 -110.6,50.3 -110.1,49 -109.9,47.9 -110.1,46.7 -110.6,45.9 
	-111.1,45.5 "/>
<polygon id="XMLID_37_" class="st0" points="-117.8,38.4 -118.4,37.8 -119.1,37.4 -120,36.9 -121.2,36.7 -122,36.7 -122.9,36.8 
	-123.8,37.1 -124.7,37.5 -125.4,38 -126.4,38.9 -127.2,40.2 -127.5,41.6 -127.6,42.3 -127.5,43.1 -127.3,43.8 -127.1,44.5 
	-126.8,45.1 -126.4,45.6 -125.9,46.3 -125.2,46.7 -124.7,47.1 -124.2,47.4 -123.5,47.7 -122.8,47.8 -121.7,47.9 -120.8,47.7 
	-119.7,47.4 -118.8,46.9 -117.8,46 -117.2,45.2 -116.7,44.2 -116.4,43.2 -116.4,42 -116.5,41 -116.7,40.2 -117.2,39.2 "/>
<polygon id="XMLID_36_" class="st2" points="-119,39.6 -119.6,39.3 -120,39.5 -120.1,40 -120.1,41.1 -120.3,42.2 -121.2,43.7 
	-122.1,44.6 -122.1,45.4 -121.7,46 -121.1,46.2 -119.9,45.8 -118.9,44.8 -118.2,43.6 -117.9,42.6 -117.8,41.4 -118.2,40.5 
	-118.7,40 "/>
<polygon id="XMLID_35_" class="st0" points="-125.1,31.3 -125.6,30.8 -126.3,30.3 -127.2,29.9 -128.4,29.7 -129.3,29.7 -130.1,29.8 
	-131,30 -131.9,30.4 -132.6,30.9 -133.6,31.9 -134.4,33.2 -134.8,34.5 -134.8,35.3 -134.7,36 -134.5,36.8 -134.3,37.5 -134,38.1 
	-133.6,38.6 -133.1,39.2 -132.4,39.7 -132,40 -131.4,40.4 -130.7,40.6 -130,40.8 -128.9,40.8 -128,40.7 -127,40.3 -126,39.8 
	-125,39 -124.4,38.1 -124,37.2 -123.7,36.1 -123.6,35 -123.7,34 -123.9,33.2 -124.4,32.2 "/>
<polygon id="XMLID_34_" class="st2" points="-126.2,32.6 -126.8,32.3 -127.2,32.4 -127.3,32.9 -127.3,34.1 -127.6,35.1 -128.4,36.6 
	-129.3,37.6 -129.4,38.4 -128.9,38.9 -128.4,39.1 -127.1,38.7 -126.1,37.8 -125.4,36.6 -125.1,35.6 -125,34.3 -125.4,33.5 
	-125.9,32.9 "/>
<polygon id="XMLID_33_" class="st0" points="-131,25.9 -131.4,25.3 -131.9,24.8 -132.7,24.3 -133.7,23.9 -134.4,23.8 -135.2,23.7 
	-136,23.8 -136.8,24 -137.6,24.4 -138.6,25.1 -139.5,26.1 -140,27.2 -140.1,27.9 -140.2,28.5 -140.1,29.2 -140,29.9 -139.8,30.4 
	-139.6,30.9 -139.2,31.6 -138.7,32.1 -138.3,32.5 -137.9,32.8 -137.4,33.1 -136.7,33.4 -135.8,33.6 -135,33.6 -134,33.5 
	-133.1,33.2 -132.1,32.6 -131.4,31.9 -130.9,31.2 -130.5,30.3 -130.2,29.3 -130.2,28.4 -130.3,27.6 -130.6,26.7 "/>
<polygon id="XMLID_32_" class="st2" points="-132.2,26.8 -132.7,26.4 -133,26.5 -133.2,26.9 -133.3,27.9 -133.8,28.8 -134.7,30 
	-135.6,30.7 -135.8,31.4 -135.5,31.9 -135.1,32.2 -133.9,32 -132.9,31.4 -132.1,30.4 -131.6,29.6 -131.4,28.5 -131.6,27.7 
	-131.9,27.1 "/>
<polygon id="XMLID_31_" class="st0" points="-136.4,20.3 -136.8,19.9 -137.2,19.5 -137.7,19.1 -138.5,18.8 -139.1,18.7 -139.7,18.7 
	-140.3,18.8 -140.9,18.9 -141.5,19.2 -142.3,19.7 -142.9,20.5 -143.3,21.4 -143.4,21.8 -143.5,22.4 -143.4,22.9 -143.3,23.4 
	-143.2,23.8 -143,24.2 -142.7,24.7 -142.3,25.1 -142.1,25.4 -141.7,25.6 -141.3,25.9 -140.8,26.1 -140.1,26.2 -139.5,26.2 
	-138.7,26.1 -138,25.9 -137.3,25.4 -136.8,24.9 -136.4,24.4 -136.1,23.7 -135.9,22.9 -135.8,22.2 -135.9,21.7 -136.1,21 "/>
<polygon id="XMLID_30_" class="st2" points="-137.4,21 -137.7,20.7 -138,20.8 -138.1,21.1 -138.2,21.9 -138.6,22.6 -139.3,23.5 
	-140,24 -140.1,24.5 -139.9,25 -139.6,25.2 -138.7,25 -137.9,24.5 -137.3,23.8 -136.9,23.1 -136.8,22.3 -136.9,21.7 -137.2,21.3 "/>
<polygon id="XMLID_29_" class="st0" points="-140.3,15.6 -140.5,15.2 -140.9,14.9 -141.4,14.6 -142.1,14.3 -142.6,14.2 -143.1,14.2 
	-143.6,14.3 -144.2,14.4 -144.6,14.7 -145.4,15.1 -145.9,15.8 -146.3,16.6 -146.4,17 -146.4,17.4 -146.3,17.9 -146.3,18.3 
	-146.2,18.7 -146,19 -145.7,19.5 -145.4,19.8 -145.2,20 -144.9,20.3 -144.5,20.5 -144.1,20.7 -143.4,20.8 -142.9,20.8 -142.3,20.7 
	-141.7,20.5 -141,20.1 -140.6,19.7 -140.2,19.2 -139.9,18.6 -139.8,17.9 -139.7,17.3 -139.8,16.8 -140,16.2 "/>
<polygon id="XMLID_28_" class="st2" points="-141.1,16.2 -141.4,16 -141.6,16.1 -141.7,16.3 -141.8,17 -142.1,17.6 -142.8,18.4 
	-143.4,18.9 -143.5,19.3 -143.3,19.7 -143,19.9 -142.2,19.8 -141.5,19.3 -141,18.7 -140.7,18.1 -140.6,17.4 -140.7,16.9 
	-140.9,16.5 "/>
<polygon id="XMLID_27_" class="st0" points="-143.3,11.1 -143.5,10.7 -143.8,10.5 -144.2,10.2 -144.8,9.9 -145.3,9.9 -145.7,9.9 
	-146.2,9.9 -146.7,10 -147.1,10.2 -147.7,10.6 -148.2,11.2 -148.5,11.9 -148.6,12.2 -148.6,12.6 -148.6,13.1 -148.5,13.4 
	-148.4,13.7 -148.2,14 -148,14.4 -147.8,14.7 -147.5,14.9 -147.3,15.1 -147,15.3 -146.6,15.5 -146,15.6 -145.6,15.6 -145,15.5 
	-144.5,15.3 -143.9,15 -143.5,14.6 -143.2,14.2 -143,13.6 -142.8,13.1 -142.8,12.5 -142.8,12.1 -143,11.6 "/>
<polygon id="XMLID_26_" class="st2" points="-144,11.6 -144.2,11.4 -144.4,11.5 -144.5,11.7 -144.6,12.3 -144.9,12.8 -145.4,13.5 
	-146,13.9 -146.1,14.3 -145.9,14.6 -145.6,14.8 -145,14.7 -144.3,14.3 -143.9,13.7 -143.6,13.2 -143.5,12.6 -143.6,12.1 
	-143.8,11.8 "/>
<polygon id="XMLID_25_" class="st0" points="-145.6,7.1 -145.8,6.8 -146,6.5 -146.4,6.2 -146.9,6 -147.3,5.8 -147.7,5.8 -148.1,5.8 
	-148.6,5.9 -149,6 -149.6,6.3 -150.1,6.8 -150.4,7.4 -150.5,7.7 -150.6,8.1 -150.6,8.4 -150.5,8.8 -150.5,9.1 -150.4,9.4 
	-150.2,9.7 -150,10 -149.8,10.2 -149.6,10.4 -149.3,10.6 -149,10.8 -148.5,11 -148.1,11 -147.6,11 -147.1,10.9 -146.5,10.6 
	-146.1,10.3 -145.8,9.9 -145.6,9.5 -145.4,9 -145.3,8.5 -145.3,8.1 -145.4,7.6 "/>
<polygon id="XMLID_24_" class="st2" points="-146.3,7.5 -146.5,7.3 -146.7,7.4 -146.8,7.6 -146.9,8.1 -147.2,8.6 -147.8,9.1 
	-148.3,9.4 -148.4,9.8 -148.3,10.1 -148.1,10.3 -147.5,10.2 -146.9,9.9 -146.4,9.5 -146.1,9.1 -146,8.5 -146,8.1 -146.2,7.7 "/>
<polygon id="XMLID_23_" class="st0" points="-147.6,3.6 -147.8,3.4 -148,3.1 -148.3,2.9 -148.7,2.7 -149,2.6 -149.3,2.6 -149.7,2.6 
	-150,2.6 -150.3,2.7 -150.8,3 -151.2,3.4 -151.5,3.8 -151.6,4.1 -151.6,4.4 -151.6,4.7 -151.6,4.9 -151.6,5.2 -151.5,5.4 
	-151.4,5.7 -151.2,6 -151,6.1 -150.8,6.3 -150.6,6.5 -150.4,6.6 -150,6.7 -149.6,6.8 -149.2,6.7 -148.8,6.7 -148.4,6.4 -148.1,6.2 
	-147.8,5.9 -147.6,5.5 -147.4,5.1 -147.4,4.7 -147.4,4.4 -147.5,4 "/>
<polygon id="XMLID_22_" class="st2" points="-148.2,4 -148.3,3.8 -148.5,3.8 -148.6,4 -148.7,4.4 -148.9,4.8 -149.4,5.2 -149.8,5.5 
	-149.9,5.8 -149.8,6 -149.6,6.2 -149.1,6.1 -148.6,5.9 -148.3,5.5 -148,5.2 -147.9,4.7 -148,4.4 -148.1,4.1 "/>
<polygon id="XMLID_21_" class="st0" points="-149.4,0.4 -149.5,0.1 -149.7,-0.1 -150,-0.4 -150.4,-0.6 -150.7,-0.7 -151.1,-0.7 
	-151.4,-0.7 -151.8,-0.7 -152.1,-0.6 -152.6,-0.3 -153,0.1 -153.2,0.6 -153.3,0.8 -153.4,1.1 -153.4,1.4 -153.4,1.7 -153.3,1.9 
	-153.2,2.2 -153.1,2.4 -152.9,2.7 -152.8,2.9 -152.6,3 -152.4,3.2 -152.1,3.3 -151.7,3.5 -151.4,3.5 -151,3.5 -150.6,3.4 
	-150.1,3.2 -149.8,2.9 -149.6,2.6 -149.3,2.3 -149.2,1.9 -149.1,1.5 -149.1,1.1 -149.2,0.7 "/>
<polygon id="XMLID_20_" class="st2" points="-149.9,0.7 -150.1,0.5 -150.2,0.6 -150.3,0.7 -150.4,1.2 -150.7,1.5 -151.1,2 
	-151.5,2.2 -151.7,2.5 -151.6,2.8 -151.4,2.9 -150.9,2.9 -150.4,2.6 -150,2.3 -149.8,1.9 -149.7,1.5 -149.7,1.1 -149.8,0.9 "/>
<polygon id="XMLID_19_" class="st0" points="-117.2,146.5 -118.4,148.7 -119.9,150.8 -122.1,152.8 -124.6,154.4 -126.9,155.1 
	-130.3,155.8 -133.3,155.5 -136.1,154.3 -138.8,152.9 -140.1,151.9 -141.7,151.7 -143.5,152 -145.7,151.4 -146.4,150.8 
	-146.4,148.8 -146.1,146.9 -145.7,145 -145.8,143.8 -147.4,139.7 -148.6,135.8 -149.1,132.8 -149.1,131.5 -148.4,130.9 
	-145.5,130.9 -141.1,130.4 -137.7,130 -136.8,130.4 -136.6,132.3 -136,135 -135.3,137.9 -134.6,140.7 -134.6,142.6 -134.6,144.1 
	-135.2,144.3 -135.7,144.7 -135.8,144.8 -135.8,145 -135.7,145 -135.2,144.9 -134.7,144.8 -134.5,144.8 -133.8,145.3 -134,145.5 
	-134.1,145.7 -134.2,145.9 -134.2,146 -134,146 -133.8,145.9 -133.6,145.7 -133.4,145.6 -131.3,146.6 -127.3,147.7 -124.3,147.5 
	-122.3,146.8 -120.4,145.8 -118.8,144.6 -118,144.2 -117.3,144.4 -117,145.2 "/>
<polygon id="XMLID_18_" class="st2" points="-141.2,132.2 -141.9,132.4 -142.8,132.9 -143.4,134.2 -141.9,139.5 -139.9,143.5 
	-139,143.6 -138.6,143 -138.6,139.2 -138.9,136.6 -139.5,133.2 -140.1,132.6 "/>
<polygon id="XMLID_17_" class="st2" points="-133.8,149.7 -133.7,150.7 -132.7,151.6 -129.6,152.3 -125.5,152 -122,149.9 
	-121.7,148.6 -122.4,148.2 -125.6,149.5 -128.6,149.7 -132.7,148.6 -133.4,148.9 "/>
<polygon id="XMLID_16_" class="st0" points="-154.4,149 -154.5,150.5 -155.3,152.5 -157.2,155.4 -159,157 -161.8,158.9 -164,159.3 
	-166.5,159.6 -171.1,159.6 -173.6,158.8 -175,158.1 -175.9,157 -177.5,156.8 -178.7,157.1 -181.8,156.3 -183.2,155.2 -183.7,154.3 
	-183.9,152.8 -183.7,151.2 -183.2,149.6 -183.2,148.7 -183.9,146.9 -184.9,143.5 -185.8,140.2 -186.4,137.2 -186.3,135.7 
	-185.8,135 -183.6,134.8 -179.7,134.5 -176.8,134.1 -174.1,134 -173.6,134.6 -173.3,137.5 -173.3,139.5 -172.4,142.4 -171.6,145.1 
	-171.7,148.4 -171.6,148.6 -172.2,149 -172.5,149.2 -172.5,149.4 -172.4,149.5 -172.2,149.5 -171.6,149.2 -171.5,149.2 
	-170.9,149.8 -171.4,150.5 -171.6,150.8 -171.6,151 -171.5,151.1 -171.3,151 -170.8,150.5 -170.2,150.3 -168.6,150.8 -165.2,151.6 
	-162.4,151.7 -160.5,151.6 -158.7,150.7 -156.8,149.7 -155.4,148.7 -154.7,148.7 "/>
<polygon id="XMLID_15_" class="st2" points="-177.3,136.9 -178.7,136.7 -179.4,136.9 -180.3,137.7 -180.7,139 -180.2,141.7 
	-178.8,145.7 -176.8,148.1 -175.8,148.5 -175.4,148 -175.4,147.5 -176.4,143.9 -176.8,140.8 -177,137.8 -177.2,137.2 "/>
<polygon id="XMLID_14_" class="st2" points="-171.4,152.6 -172,153.3 -172.4,154.6 -171.9,155.4 -169.9,156.1 -166.4,155.9 
	-162.2,154.7 -161.1,153.6 -161.3,153 -162.1,152.9 -165.1,153.1 -167.8,152.9 -169.8,152.5 -170.8,152.3 "/>
<polygon id="XMLID_13_" class="st4" points="-162.6,39.3 -164.4,38.1 -167.2,37.8 -171.9,38.3 -178.5,39.4 -184.8,39.4 -190.3,38.7 
	-192.3,38.9 -192.5,40.2 -191.5,41.8 -186.7,44.5 -177.9,47.2 -170.2,47.9 -165.8,46.6 -162.8,44.4 -161.9,42.1 -161.9,40.5 "/>
<polygon id="XMLID_12_" class="st4" points="-165.9,54.9 -168,52.7 -171.6,51.7 -177.9,51.2 -186.8,51 -195,49.5 -202.1,47.2 
	-204.7,47.1 -205.3,48.7 -204.4,51 -198.7,55.8 -187.9,61.4 -178,64.2 -172,63.6 -167.5,61.4 -165.7,58.7 -165.3,56.5 "/>
<polygon id="XMLID_11_" class="st4" points="-143,98.4 -144.9,98.3 -147.5,99.2 -148.6,100.2 -148.3,103.9 -147.2,107.9 
	-146.3,108.7 -145.3,108.4 -144.3,107.4 -142.9,103.9 -142,99.7 -142.5,98.9 "/>
<polygon id="XMLID_10_" class="st4" points="-182.7,98 -184.6,97.7 -186.7,98.2 -187.7,99.3 -188,102 -187,106.8 -185.4,109.6 
	-183.2,112 -182.3,112.1 -181.5,111.6 -181.3,110.6 -180.8,105.7 -180.8,100.6 -181.5,98.7 "/>
<polygon id="XMLID_9_" class="st4" points="-145.5,114.4 -146.4,114.3 -147,114.4 -147.5,114.8 -147.6,115.7 -147.4,119.2 
	-147.7,122.3 -146.5,125.2 -145.3,127.1 -144.6,126.9 -144.7,126.2 -145.8,122.6 -145.8,119.1 -145.2,115.6 -145.2,114.8 "/>
<polygon id="XMLID_8_" class="st4" points="-181.1,119.7 -182,119.6 -182.6,119.6 -183.1,120 -183.2,121 -183,124.5 -183.3,127.5 
	-182.1,130.5 -180.9,132.4 -180.2,132.1 -180.3,131.4 -181.4,127.9 -181.4,124.4 -180.8,120.8 -180.8,120.1 "/>
<polygon id="XMLID_7_" class="st4" points="-295.5,-14.7 -293.9,-14.1 -288.1,-13.3 -280.2,-11.6 -274.3,-9.4 -271.6,-8.4 
	-271.3,-9.2 -273.5,-11 -280.5,-14.6 -287.4,-17 -294.2,-17.7 -295.9,-17.1 -296,-15.4 "/>
<polygon id="XMLID_6_" class="st4" points="-303.8,-25.2 -304.6,-26.4 -304.1,-28.1 -303.4,-28.9 -301.1,-29.4 -298.8,-29.2 
	-292.9,-27.1 -284.8,-23.8 -274.5,-18.1 -265.3,-11.5 -263.1,-8.5 -263.4,-7.7 -264.2,-8 -269.5,-12.1 -276.6,-16.2 -286.9,-20 
	-294.9,-22.3 -301.2,-24.1 -302.6,-24.5 "/>
<polygon id="XMLID_5_" class="st4" points="-290.2,-30 -288,-29.2 -281.9,-27.3 -276.3,-24.8 -269.3,-20.9 -263.1,-16.7 
	-261.5,-15.7 -261.2,-16.3 -264.1,-19.5 -269.9,-24.5 -275.5,-27.9 -282,-31.5 -287.1,-33.5 -289.9,-34 -291.4,-33 -291.4,-31 "/>
<polygon id="XMLID_4_" points="-108.9,-55.9 -112.5,-54.7 -115.7,-52.7 -117.5,-51.1 -121.7,-51.1 -128,-52.1 -134.9,-53.9 
	-139,-55.1 -141,-54.5 -142.1,-52.9 -143.3,-49 -143.3,-43.6 -141.7,-37.6 -139.7,-32.2 -137.4,-28.6 -134.5,-27.4 -132.8,-27.9 
	-130.4,-30.6 -126.1,-33.9 -122,-36.6 -117.7,-38.7 -114.8,-39.8 -112.1,-38.6 -108.1,-37.7 -103.2,-38.6 -100.8,-40.7 -99.4,-41.2 
	-95.7,-41.1 -91.1,-40.9 -83.9,-40 -77.6,-38.8 -73.5,-38.3 -71.7,-39.7 -70.9,-43.1 -72,-51 -73.9,-56.1 -76.4,-61.6 -80,-64.8 
	-82.8,-65.6 -85.7,-65.2 -90,-63 -94.6,-59.2 -98.7,-56.6 -102.8,-54.3 -105.4,-55.3 "/>
<path id="XMLID_70_" class="st8" d="M-116.3-42l-0.7-1.6l-1.4,0.7l-1.9,1l-0.8,0.4h-0.5v-0.4l0.4-0.5l1.6-1.6l1.5-1.2l0.6-0.4
	l-0.3-2h-0.7h-1.4l-0.7-0.1l-0.1-0.3l0.3-0.3l1.5-0.4l1.5-0.2l0.1-1.2l-0.6-0.1l-5,0.2l-8.5-1.7l-6.7-1.2l-1.7,0.5l-1.4,2.6
	l-0.5,4.3l1,4.3l1.4,6.1l1.4,3.1l1.6,2.1l1.3,0.9l1.2-0.2l1.2-0.9l4.1-4l5-3.3l5.8-2.4l1.6-0.5L-116.3-42z M-101.1-52.8l0.2,0.3
	l1.8-0.5l1.5-0.2l0.6,0.1v0.4l-0.2,0.3l-2,0.9l-0.8,0.4l0.3,2.2l1.2,0.3l3.5,0.9l0.7,0.5v0.3l-0.4,0.4h-2.8l-2.1-0.2v0.2l-0.9,2.4
	l-0.8,1.9l14.1,0.5l10.9,1.6l2.6-0.5l0.9-2.4l-1.1-8.9l-3.5-8.8l-1.4-1.7l-2.4-1.3l-1.7-0.6l-4.1,1.2l-8.2,6.2l-6.4,3.3L-101.1-52.8
	z M-115.9-49.9l-0.4,1.8l0.1,2.2l0.9,2.6l0.9,1.7l1.3,1l1.4,0.7l2.1,0.3l2.6,0.1l2.1-0.4l1.8-0.8l1.1-1.2l0.5-1.9l0.5-2l0.2-2
	l-0.3-1.7l-1-2.2l-0.9-1l-0.3-0.2l-1.2-0.7l-2-0.5l-2-0.2l-1.9,0.3l-2.6,1l-1.9,1.5L-115.9-49.9z"/>
<polygon class="st9" points="106.6,39.3 92.9,34.8 80.5,33.4 66.4,36 50.8,42.3 36,52.7 24.4,66.9 14.3,86.7 9.3,106.9 10.8,122.6 
	14.3,136.9 20.8,148.8 32.1,162.9 46,173.3 65.9,179.5 80.4,179.9 93.3,178 110.7,172.5 113.9,165.9 119.4,142.3 119.6,130.6 
	117.1,128.8 107.5,129.7 87.5,130 78.4,128.4 73.2,126.5 69.1,124.1 65.1,119.8 62.8,114.6 62.4,108 64,100.2 66.7,94.7 70.5,90.6 
	79.7,86.8 90.7,83.7 101.7,82.4 110.7,82.1 112.6,73.4 114.1,53.6 112.9,44.7 "/>
<path class="st9" d="M130.4,150.8l-0.8,0.5l-1,1l-0.9,1.9l-0.4,1.7l-0.1,2.1l0.4,2.3l0.9,1.6l1.9,1.2l2.4,0.3l2.3-0.3l1.7-1.1
	l1.2-1.9l0.5-2.5l0-2.3l-0.8-2.3l-1.2-1.7l-1-0.8l-1.3-0.4l-1.6,0l-1.2,0.3L130.4,150.8z M126.4,141.1l-2.2,1.4l-2.8,2.6l-2.5,5.3
	l-1.2,4.7l-0.2,5.8l1.1,6.4l2.5,4.3l5.3,3.2l6.4,0.7l6.2-0.9l4.7-2.9l3.2-5.2l1.3-6.7l0-6.2l-2.2-6.2l-3.3-4.6l-2.7-2.3l-3.5-1.2
	l-4.3,0.1l-3.3,0.8L126.4,141.1z"/>
<path class="st9" d="M188.4,152.1l-0.8,0.5l-1,0.9l-0.9,1.8l-0.4,1.6l-0.1,2l0.4,2.2l0.9,1.5l1.8,1.1l2.2,0.2l2.1-0.3l1.6-1l1.1-1.8
	l0.5-2.3l0-2.1l-0.8-2.1l-1.1-1.6l-0.9-0.8l-1.2-0.4l-1.5,0l-1.1,0.3L188.4,152.1z M184.6,143l-2.1,1.3l-2.6,2.5l-2.3,4.9l-1.1,4.4
	l-0.2,5.4l1,6l2.3,4l5,3l6,0.7l5.8-0.8l4.4-2.7l3-4.9l1.2-6.3l0-5.8l-2.1-5.9l-3.1-4.3l-2.5-2.1l-3.3-1.1l-4,0.1l-3.1,0.8L184.6,143
	z"/>
<polygon class="st9" points="207.1,152.7 206.2,161.7 205.2,173.5 204.5,179.1 205.3,180.5 211,180.8 220,180.4 221.5,179.7 
	221.1,175.9 220.4,168.8 220.5,167.1 221,166.8 221.8,167 223.6,169.4 228.6,176.6 230.3,178.9 233.8,179 241.6,178.5 242.2,177.7 
	241.9,176.2 235.9,167.8 232,161.3 230.6,158 229.7,156.1 230.1,154.5 233.3,149.6 238.2,144 238.7,143.3 238.5,142 238,140.8 
	237,140.2 228.4,139 222.9,138.8 221.6,139.1 220.7,139.8 220.3,144.4 219.1,150.4 219,150.6 218.6,150.7 218.2,150.6 218,150.4 
	217.8,147.5 217.3,144 217.3,144 217.3,144 217,141.5 216.6,140.8 216.6,140.8 216.2,140.1 212.5,139.4 209.8,138.9 206.3,138.7 
	204.5,138.7 203.4,139.3 203.8,140.1 205.3,142.4 206.7,146 "/>
<path class="st9" d="M250.4,151.8l-0.8,0.5l-1,0.9l-0.9,1.8l-0.4,1.6l-0.1,2l0.4,2.2l0.9,1.5l1.8,1.1l2.2,0.2l2.1-0.3l1.6-1l1.1-1.8
	l0.5-2.3l0-2.1l-0.8-2.1l-1.1-1.6l-0.9-0.8l-1.2-0.4l-1.5,0l-1.1,0.3L250.4,151.8z M246.6,142.8l-2.1,1.3l-2.6,2.5l-2.3,4.9
	l-1.1,4.4l-0.2,5.4l1,6l2.3,4l5,3l6,0.7l5.8-0.8l2.3-1.4l1.1,1.4l2.1,1.9l2.9,1.7l2.5,0l3.7-1.4l2.3-2.5l-0.2-1.9l-2.3-1.8l-1.4-3
	l-0.2-7.8l0.9-14.7l-0.4-3.8l-1.4-0.8l-1.5-0.5l-3.7-0.4l-1.9,0.8l-1.1,4.2l-2.5-2.1l-3.3-1.1l-4,0.1L249,142L246.6,142.8z"/>
<path class="st9" d="M48.8,240l-1.4,0.9l-1.7,1.6l-1.6,3.3l-0.7,3l-0.1,3.6l0.7,4l1.5,2.7l3.3,2l4,0.4l3.9-0.6l2.9-1.8l2-3.2
	l0.8-4.2l0-3.9l-1.4-3.9L59,241l-1.7-1.4l-2.2-0.8l-2.7,0.1l-2.1,0.5L48.8,240z M45.5,203.5l-1,0.6l-1.3,1.2l-1.2,2.4l-0.5,2.2
	l-0.1,2.7l0.5,3l1.1,2l2.5,1.5l3,0.3l2.9-0.4l2.2-1.3l1.5-2.4l0.6-3.1l0-2.9l-1-2.9l-1.5-2.1l-1.3-1l-1.6-0.6l-2,0.1l-1.5,0.4
	L45.5,203.5z M32.1,210.8l-0.9,12.2l-1.7,41.3L28.9,276l1.1,2.3l9.2,0.9l9-0.7l5.6-1.1l4.6-0.9l5.2-1.3l4.9-2.4l5-3.7l2.4-6.2
	l1.4-14.3l-2-6.2l-2.6-6l-4.4-5.6l-6.2-4.6l3.9-7l1.2-4.3l0-5.5l-0.4-4l-0.9-4.1l-1.4-3.7l-1.3-2.4l-1.9-1.6l-2.1-1.8l-3-1.3
	l-10.7-1l-1.6,0l-6.4-1l-5.5-0.4l-2.4-0.5l-2.1-0.6l-1.1,0.3l-0.5,0.7l0.4,1.5l1.6,2.1l1.6,3.3l1.2,4.5l0.9,7.6L32.1,210.8z"/>
<path class="st9" d="M93,246.6l-0.9,0.6l-1.2,1.1l-1,2.2l-0.5,2l-0.1,2.4l0.5,2.7l1,1.8l2.2,1.3l2.7,0.3l2.6-0.4l2-1.2l1.3-2.2
	l0.6-2.8l0-2.6l-0.9-2.6l-1.4-1.9l-1.1-1l-1.5-0.5l-1.8,0.1l-1.4,0.3L93,246.6z M88.4,235.5l-2.5,1.6l-3.2,3l-2.9,6.1l-1.4,5.4
	l-0.3,6.7l1.3,7.3l2.8,4.9l6.1,3.7l7.4,0.8l7.1-1l5.4-3.3l3.7-6l1.5-7.8l0-7.1l-2.6-7.2l-3.8-5.3l-3.1-2.6l-4-1.4l-4.9,0.2l-3.8,0.9
	L88.4,235.5z"/>
<path class="st9" d="M131.5,229.9l-0.9,0.6l-1.2,1.1l-1,2.2l-0.5,2l-0.1,2.4l0.5,2.7l1,1.8l2.2,1.3l2.7,0.3l2.6-0.4l2-1.2l1.3-2.2
	l0.6-2.8l0-2.6l-0.9-2.6l-1.4-1.9l-1.1-1l-1.5-0.5l-1.8,0.1l-1.4,0.3L131.5,229.9z M119.4,229.7l-0.8,12.3l-0.7,14.8l-1.2,14.1
	l-1.1,9.2l2.1,1.3l5.9,0.5l6.5-0.4l5.1-1.1l2.2-3.3l-0.9-6.1l0.7-14.3l5.3-2l5-5.1l2.8-6.2l0.5-8l-0.9-7l-1.8-3.7l-2.9-2.5l-6.2-2.1
	l-7.5-0.5l-4.3,0.1h0l-5.4-0.2l-2.9,0.1l-3.8,0.4l-0.9,0.4l0.1,0.7l0.7,0.6l2,1.3l1.4,2.7L119.4,229.7z"/>
<path class="st9" d="M166.1,246.5l-0.9,0.6l-1.2,1.1l-1,2.2l-0.5,2l-0.1,2.4l0.5,2.7l1,1.8l2.2,1.3l2.7,0.3l2.6-0.4l2-1.2l1.3-2.2
	l0.6-2.8l0-2.6l-0.9-2.6l-1.4-1.9l-1.1-0.9l-1.5-0.5l-1.8,0.1l-1.4,0.3L166.1,246.5z M161.5,235.4l-2.5,1.6l-3.2,3l-2.9,6.1
	l-1.4,5.4l-0.3,6.7l1.3,7.3l2.8,4.9l6.1,3.7l7.4,0.8l7.1-1l5.4-3.3l3.7-6l1.5-7.8l0-7.1l-2.6-7.2l-3.8-5.3l-3.1-2.6l-4-1.4l-4.9,0.2
	l-3.8,0.9L161.5,235.4z"/>
<polygon class="st9" points="189.4,239.7 189.3,242.8 189.2,254.4 188.4,268.2 187.3,274.9 188.8,276.5 192.7,276.5 198.1,276.1 
	201.1,275.2 202,270.5 202.7,261 204,259.2 207.5,258.9 210.2,259.1 211.2,261.1 210.8,266.6 211.5,274.3 213.4,274.8 219.6,274.4 
	222.2,273.6 223.6,271.9 222.2,252.4 222.6,240 223.4,237 225,233.6 226.7,231.2 227.4,230 227.3,229.1 226.5,228.7 224.7,228.4 
	217.8,228.8 214.6,229.7 213.8,230.8 213,232.3 211.3,241.5 210.5,249.2 208.4,250.2 203,249.2 202.4,243.8 202.1,238.7 
	202.1,234.4 201.6,232.8 200.7,231.7 199.4,230.9 196.6,230.2 194.3,229.9 190.2,229.7 186.6,230.3 186.1,230.8 186.1,231.7 
	187.5,233.5 189,236.5 "/>
<path class="st9" d="M240,247l-0.9,0.6l-1.2,1.1l-1,2.2l-0.5,2l-0.1,2.4l0.5,2.7l1,1.8l2.2,1.3l2.7,0.3l2.6-0.4l2-1.2l1.3-2.2
	l0.6-2.8l0-2.6l-0.9-2.6l-1.4-1.9l-1.1-0.9l-1.5-0.5l-1.8,0.1l-1.4,0.3L240,247z M235.4,235.9l-2.5,1.6l-3.2,3l-2.9,6.1l-1.4,5.4
	l-0.3,6.7l1.3,7.3l2.8,4.9l6.1,3.7l7.4,0.8l7.1-1l2.8-1.7l1.3,1.7l2.5,2.4l3.6,2.1l3,0l4.5-1.7l2.8-3l-0.2-2.3l-2.9-2.3l-1.8-3.7
	l-0.3-9.6l1.1-18.1l-0.5-4.7l-1.7-1l-1.9-0.6l-4.6-0.4l-2.3,1l-1.4,5.2l-3.1-2.6l-4-1.4l-4.9,0.2l-3.8,0.9L235.4,235.9z"/>
<path class="st9" d="M161.3,137.7l-0.8,0.5l-1,0.9l-0.9,1.8l-0.4,1.6l-0.1,2l0.4,2.2l0.9,1.5l1.8,1.1l2.2,0.2l2.1-0.3l1.6-1l1.1-1.8
	l0.5-2.3l0-2.1l-0.8-2.1l-1.1-1.6l-0.9-0.8l-1.2-0.4l-1.5,0l-1.1,0.3L161.3,137.7z M151.4,137.5l-0.6,10l-0.6,12l-1,11.5l-0.9,7.5
	l1.8,1.1l4.8,0.4l5.3-0.4l4.2-0.9l1.8-2.7l-0.7-4.9l0.6-11.7l4.3-1.7l4.1-4.1l2.3-5l0.4-6.5l-0.8-5.7l-1.4-3l-2.4-2l-5-1.8l-6.1-0.4
	l-3.5,0.1l0,0l-4.4-0.1l-2.4,0.1l-3.1,0.3l-0.7,0.3l0.1,0.6l0.6,0.5l1.7,1.1l1.2,2.2L151.4,137.5z"/>
<path class="st10" d="M37.5,200.6c-0.1-0.3-0.2-0.6-0.2-0.9c0-0.4,0-0.8,0-1.2c0-0.4,0-0.8,0-1.2c0-0.1,0-0.2,0.1-0.2
	c0,0,0.1,0,0.2,0 M37.6,193.9c-0.2-0.4-0.3-0.9-0.3-1.6c0-0.3,0.1-0.7,0.2-1.1"/>
<line class="st9" x1="244.3" y1="126.5" x2="249" y2="126.7"/>
</svg>
