<?xml version="1.0" encoding="utf-8"?>
<!-- Generator: Adobe Illustrator 19.0.0, SVG Export Plug-In . SVG Version: 6.00 Build 0)  -->
<svg version="1.1" id="Слой_1" xmlns="http://www.w3.org/2000/svg" xmlns:xlink="http://www.w3.org/1999/xlink" x="0px" y="0px"
	 viewBox="0 26.4 285 263.5" style="enable-background:new 0 26.4 285 263.5;" xml:space="preserve">
<style type="text/css">
	.st0{fill:#588DCA;}
	.st1{fill:#E9A3C8;}
	.st2{fill:#9ABFE6;}
	.st3{fill:#FFFFFF;}
	.st4{fill:#575756;}
	.st5{fill:#FFFBDC;}
	.st6{fill:#2595CA;}
	.st7{fill:#6F6F6E;}
	.st8{fill:#F29392;}
	.st9{fill-rule:evenodd;clip-rule:evenodd;fill:#FFFAFA;}
	.st10{fill:#FFFAFA;}
</style>
<polygon id="XMLID_68_" class="st0" points="164.7,118.4 164.6,118.1 164.4,117.9 164.1,117.6 163.7,117.4 163.3,117.4 163,117.3 
	162.7,117.3 162.3,117.4 162,117.5 161.5,117.7 161.1,118.1 160.8,118.6 160.7,118.9 160.7,119.1 160.7,119.4 160.7,119.7 
	160.8,120 160.8,120.2 161,120.5 161.2,120.7 161.3,120.9 161.5,121.1 161.7,121.2 162,121.4 162.4,121.5 162.7,121.5 163.1,121.5 
	163.5,121.4 163.9,121.2 164.3,121 164.5,120.7 164.7,120.3 164.9,119.9 164.9,119.5 164.9,119.2 164.9,118.8 "/>
<polygon id="XMLID_67_" class="st1" points="164.2,118.7 164,118.6 163.8,118.6 163.7,118.8 163.6,119.2 163.4,119.5 163,120 
	162.5,120.3 162.4,120.5 162.5,120.8 162.7,120.9 163.2,120.9 163.7,120.7 164.1,120.3 164.3,119.9 164.4,119.5 164.4,119.2 
	164.3,118.9 "/>
<polygon id="XMLID_66_" class="st0" points="219.8,164.5 219.1,163.9 218.2,163.6 217.1,163.3 215.6,163.2 214.7,163.4 213.7,163.7 
	212.8,164.1 211.8,164.7 211.1,165.5 210,166.8 209.4,168.4 209.2,170 209.3,170.9 209.6,171.7 210,172.6 210.3,173.3 210.8,173.9 
	211.3,174.5 212.1,175.1 212.9,175.5 213.5,175.8 214.2,176.1 215,176.3 215.9,176.3 217.2,176.2 218.2,175.8 219.3,175.2 
	220.3,174.5 221.3,173.3 221.9,172.2 222.2,171.1 222.3,169.8 222.2,168.4 221.9,167.3 221.5,166.4 220.7,165.4 "/>
<polygon id="XMLID_65_" class="st2" points="218.7,166.2 218,165.9 217.6,166.2 217.5,166.8 217.8,168.1 217.7,169.4 217,171.2 
	216.1,172.5 216.2,173.4 216.8,174 217.5,174.1 218.8,173.4 219.9,172.1 220.4,170.6 220.6,169.4 220.4,167.9 219.8,167 
	219.2,166.5 "/>
<polygon id="XMLID_64_" points="139,254.9 139.1,257.8 140,260.8 140.9,264.6 140.8,267.2 140.9,268.4 141.7,269.3 146.8,270.9 
	151.3,270.8 154.3,269.4 156.4,267.8 157.7,267.7 158.3,268.4 158,271 156.9,273.2 154.4,276.7 150.1,279.4 143.9,280.2 
	140.4,279.9 137.1,278.6 135,277.3 133.7,277.4 132.9,278.7 132.2,279.5 131.5,279.5 130.2,279.4 128.8,279.1 128.1,278.8 
	128,278.1 127.7,276.5 127.5,273.2 127.9,270.8 128.4,269 127.3,265.8 125.7,259.7 124.8,255.4 125.7,254.2 130.4,253.8 
	126.9,248.5 126.4,246.9 126.9,245.3 127.2,242.8 126.5,239.3 125.6,236.7 124.2,236 122.2,234.6 120.5,233 117.9,229.3 
	116.2,225.8 115.3,222.8 112.3,212.6 111.4,210.8 110.8,210.2 96.3,200.9 85.5,192.8 81.3,188.2 74.9,181.3 68.1,170.4 62,157.9 
	59.1,150.6 57.6,143.7 55.3,131.6 50.9,126.1 48.5,122.7 45.3,119.2 41.4,116.1 34.4,112.3 29.3,110.5 25.6,109.5 20.6,108.7 
	15.5,108.1 12.8,106.6 11.9,104.7 11.8,102.8 12.7,100.2 7.9,98.8 5.4,97.5 3.8,96 2.8,94.4 3.1,92.1 4,90.1 5.3,88.6 8.5,87.1 
	11.9,86.7 15.9,86.9 16.4,85.4 17.5,83.9 19.5,83.2 21.9,83.2 24.2,83.9 34.7,87.8 44.8,92.2 51.7,96.6 58.1,101.7 63.1,107.2 
	68.3,116 69.4,120.3 69.7,120.3 74.7,122.8 87.3,131 91.7,133.9 97.7,136.2 103,137.3 106.8,138.1 112,138.2 118.7,137.6 
	125.4,136.7 130.3,135.5 136.5,133.7 143,131.4 147.5,129.2 151.5,126.8 161,120 167,114.6 171.5,109.3 176.4,103.4 180.3,94.3 
	184,87.5 186.2,84.7 189.6,81.8 196.2,78.7 202.3,77.2 208.8,76.8 215.1,77.9 221.6,80.4 226.1,83.2 232,90.1 234.6,94.9 
	237.5,101.9 242.3,104.7 249.8,109.9 259.7,119.1 267.4,127 273.1,135.5 278.4,145.1 280.7,150.9 280.4,153.3 279,154.6 
	276.7,155.9 273.7,156 268.9,156.4 260.4,155.9 246.4,153.3 229.3,148.5 223.9,147.7 221.1,148.5 219.7,150.5 218.8,154 
	217.6,163.2 212.6,180.8 209,188.8 202.1,198.4 197.2,203.4 192,207.8 188.5,210.2 178.5,215.8 177.2,216.7 176.4,217.5 
	175.4,222.2 173.4,227.7 171.6,230.8 169.5,232.4 169.2,232.7 168.8,238.5 168.5,243.1 169.2,245.8 170.2,249.4 170.5,249.4 
	174,248.8 175.9,248.8 176.2,250.6 176.3,253.6 177.1,256.6 178.1,260.4 178,263 178.1,264.2 178.9,265 183.9,266.6 188.5,266.6 
	191.4,265.1 193.6,263.5 194.8,263.5 195.4,264.2 195.2,266.7 194.1,269 191.5,272.5 187.2,275.2 181.1,276 177.6,275.6 
	174.2,274.4 172.2,273.1 170.9,273.1 170,274.4 169.6,275 168.6,275.2 166.3,274.8 165.5,274.7 165.1,273.9 164.9,272.2 164.6,269 
	165.1,266.5 165.5,264.7 164.4,261.6 162.8,255.4 162,251.2 162.8,249.9 166.8,249.7 163.1,243.9 162.6,242.4 163,240.8 
	163.3,238.2 162.7,234.7 161.8,232.5 161.3,232.2 157.7,230.5 156.3,229.4 154.4,227.1 153.4,225.2 151.7,221.5 151.6,221.1 
	150.1,220.7 142.3,220 141.5,220.1 141.2,220.3 140.9,221.6 139.9,226.4 137.9,231.9 137,233.8 136.1,235 134.8,236.1 133.7,236.6 
	133.2,237.1 132.7,243 132.4,247.7 133.1,250.4 133.9,253.5 136.9,253 138.7,253 "/>
<polygon id="XMLID_63_" class="st3" points="214.6,166 212.9,173.3 211.3,179.3 208.2,186.3 205.4,190.4 197.3,199.7 187.9,207.2 
	181.2,211 173,214.8 163.7,217.2 156.8,218 149.1,217.8 142.3,217.1 132.9,215.2 118.2,209.5 106.6,203.1 90.2,191.9 79.4,181.2 
	71.5,169.7 64.4,158 61,148.1 60,141.6 60,139.7 60.3,138 60.7,137.3 61.6,136.7 62.7,136.3 62.2,134.4 62.4,132.7 63,131.5 
	64.2,130.3 65.1,130 67.9,129.7 68.5,128.2 69.2,127.1 70.5,126.5 72.1,126.4 74.4,126.9 76.4,127.8 85.9,133.1 94.4,137.2 
	107.1,139.7 120.2,139.1 132.3,136.8 147,131.7 157,126.6 158,126.3 159.4,126.2 160.7,126.5 161.5,126.9 162.8,129.9 164.3,131.8 
	165.3,133 167,133.9 168.5,134.5 170.3,134.9 172.3,134.9 175.7,134.8 175.8,136.7 176.2,138.8 176.7,140.2 178.4,142.1 180,143.4 
	182.4,143.9 184.7,143.9 188.4,143.7 188.6,145.6 189.2,147.3 190.1,148.8 191.2,149.8 192.8,150.6 194.5,151 197.2,151.2 
	201.1,150.7 201.4,153.3 202,154.9 203.3,156.3 204.5,157.2 205.9,158.1 207.8,158.9 209.4,159.3 211.2,159.1 213.2,158.4 
	213.8,158.4 214.7,159.1 214.9,160.8 "/>
<polygon id="XMLID_62_" class="st4" points="202.8,97 202.3,96.5 202.2,96.1 202.8,94.3 203.8,90.3 204.1,88.2 204.4,88.1 
	204.9,88.3 205,89.2 205,91.9 204.7,95.4 204.3,97.5 203.5,97.3 "/>
<polygon id="XMLID_61_" class="st4" points="198.2,97.2 197.6,96.8 197.4,96.5 197.4,94.6 196.8,90.6 196.3,88.5 196.6,88.2 
	197.1,88.3 197.6,89.1 198.5,91.6 199.5,95 199.9,97.1 199.1,97.1 "/>
<polygon id="XMLID_60_" class="st4" points="196,98.4 195.3,98.4 194.9,98.2 194.1,96.5 191.8,93.2 190.4,91.5 190.5,91.2 191,91 
	191.8,91.5 193.8,93.3 196.1,95.9 197.4,97.7 196.7,98.1 "/>
<polygon id="XMLID_59_" class="st5" points="203.9,97 202.7,96.4 201.4,96.2 199.7,96.1 197.7,96.5 196.4,97 195.1,97.7 194,98.7 
	192.8,99.8 192,101 191,103.2 190.6,105.6 190.9,107.9 191.3,109.1 191.9,110.2 192.7,111.3 193.5,112.1 194.3,112.9 195.2,113.5 
	196.4,114.1 197.7,114.4 198.6,114.6 199.7,114.8 200.9,114.8 202.1,114.6 203.9,114 205.2,113.2 206.5,112 207.7,110.6 
	208.6,108.8 209.1,107 209.2,105.3 209,103.5 208.4,101.7 207.6,100.2 206.7,99.1 205.4,97.9 "/>
<polygon id="XMLID_58_" class="st6" points="203.3,99.3 202.5,98.9 201.5,98.8 200.3,98.7 198.9,99 198,99.4 197.1,99.9 
	196.2,100.5 195.4,101.3 194.9,102.2 194.1,103.7 193.8,105.5 194.1,107.1 194.4,108 194.8,108.8 195.4,109.5 195.9,110.1 
	196.5,110.6 197.1,111.1 198,111.5 198.9,111.8 199.6,111.9 200.4,112 201.2,112 202.1,111.9 203.3,111.4 204.2,110.9 205.2,110 
	206,109.1 206.7,107.7 207,106.5 207.1,105.3 207,104 206.6,102.7 206,101.6 205.4,100.8 204.4,100 "/>
<polygon id="XMLID_57_" points="202.6,101.9 202.1,101.7 201.6,101.6 201,101.5 200.2,101.7 199.7,101.9 199.3,102.1 198.8,102.5 
	198.4,102.9 198.1,103.4 197.7,104.2 197.5,105.2 197.6,106.1 197.8,106.5 198,106.9 198.3,107.3 198.6,107.7 198.9,107.9 
	199.3,108.2 199.7,108.4 200.2,108.5 200.6,108.6 201,108.7 201.4,108.7 201.9,108.6 202.6,108.4 203.1,108.1 203.6,107.6 
	204.1,107.1 204.4,106.4 204.6,105.7 204.6,105.1 204.6,104.4 204.3,103.7 204,103.1 203.7,102.7 203.2,102.2 "/>
<polygon id="XMLID_56_" class="st3" points="198.4,102.7 198.2,102.6 198.1,102.6 197.8,102.6 197.6,102.6 197.4,102.7 197.2,102.8 
	197.1,102.9 196.9,103.1 196.8,103.2 196.7,103.5 196.6,103.8 196.6,104.2 196.7,104.3 196.8,104.5 196.9,104.6 197,104.7 
	197.1,104.8 197.2,104.9 197.4,105 197.6,105 197.7,105.1 197.8,105.1 198,105.1 198.2,105.1 198.4,105 198.6,104.9 198.8,104.7 
	198.9,104.5 199,104.3 199.1,104 199.1,103.8 199.1,103.6 199,103.3 198.9,103.1 198.8,103 198.6,102.8 "/>
<polygon id="XMLID_55_" class="st4" points="265.2,151.4 257,150.2 248.1,147.3 242.4,145.2 237.3,143 231.6,139.5 226,135.2 
	222.3,131.9 220.6,131.6 219.4,131.4 216.9,133.4 215.7,133.9 214.9,133.4 214.6,132.8 214.5,132.1 214.6,131.6 217.2,130.2 
	218.1,129.5 218.7,128.7 219,127.8 219,125.1 218.7,123.1 218.6,122.5 219,122.1 219.7,122 220.5,122.3 221.1,123.1 221.5,124.1 
	221.8,126.2 221.7,127.6 222.2,128.9 227.2,133.8 235.4,139.9 247.1,145.5 252.6,147.5 258.3,148.9 268.6,150.8 269,151.4 
	268.9,151.9 268.2,151.9 "/>
<polygon id="XMLID_54_" class="st4" points="218,93.9 217.4,94.1 217,94 215.7,92.6 212.6,89.9 210.9,88.6 211,88.3 211.4,88 
	212.2,88.2 214.6,89.5 217.6,91.5 219.2,92.8 218.7,93.4 "/>
<polygon id="XMLID_53_" class="st4" points="221.5,91.5 220.9,91.3 220.6,91.1 220.1,89.2 218.7,85.4 217.8,83.5 218,83.2 
	218.5,83.1 219.1,83.8 220.6,86 222.3,89.1 223.1,91.1 222.4,91.3 "/>
<polygon id="XMLID_52_" class="st4" points="225.5,91.9 224.9,91.6 224.7,91.2 224.7,89.3 224.3,85.3 224,83.2 224.2,82.9 224.7,83 
	225.2,83.8 226,86.3 226.9,89.8 227.1,91.9 226.4,91.9 "/>
<polygon id="XMLID_51_" class="st5" points="227.1,90.2 226,89.7 224.8,89.5 223.4,89.4 221.6,89.7 220.4,90.2 219.4,90.8 
	218.3,91.6 217.3,92.7 216.6,93.7 215.7,95.6 215.3,97.8 215.6,99.8 216,100.9 216.5,101.9 217.2,102.8 217.9,103.6 218.6,104.2 
	219.4,104.7 220.5,105.3 221.6,105.6 222.4,105.8 223.4,105.9 224.4,105.9 225.5,105.7 227.1,105.2 228.2,104.5 229.4,103.5 
	230.4,102.2 231.3,100.6 231.7,99.1 231.8,97.5 231.6,95.9 231.1,94.3 230.4,93 229.6,92 228.4,91 "/>
<polygon id="XMLID_50_" class="st6" points="226.9,91.7 226.1,91.3 225.2,91.2 224.2,91.1 222.9,91.4 222,91.7 221.3,92.2 
	220.5,92.8 219.8,93.5 219.3,94.3 218.6,95.6 218.3,97.2 218.6,98.7 218.8,99.4 219.2,100.2 219.7,100.8 220.2,101.4 220.7,101.9 
	221.3,102.2 222.1,102.6 222.9,102.9 223.5,103 224.2,103.1 224.9,103.1 225.7,102.9 226.9,102.6 227.7,102.1 228.6,101.3 
	229.3,100.4 229.9,99.2 230.2,98.1 230.3,97 230.1,95.8 229.8,94.7 229.2,93.7 228.7,93 227.8,92.3 "/>
<polygon id="XMLID_49_" points="226.2,94 225.8,93.8 225.3,93.7 224.8,93.7 224.1,93.8 223.6,94 223.2,94.2 222.8,94.5 222.4,94.9 
	222.1,95.4 221.8,96.1 221.6,96.9 221.7,97.7 221.9,98.1 222.1,98.5 222.4,98.9 222.6,99.2 222.9,99.4 223.2,99.6 223.6,99.8 
	224.1,100 224.4,100 224.8,100.1 225.2,100.1 225.6,100 226.2,99.8 226.6,99.5 227.1,99.1 227.5,98.7 227.8,98 228,97.4 228,96.8 
	228,96.2 227.8,95.6 227.5,95.1 227.2,94.7 226.7,94.3 "/>
<polygon id="XMLID_48_" class="st3" points="222.4,94.7 222.3,94.6 222.1,94.6 221.9,94.6 221.7,94.6 221.5,94.7 221.4,94.8 
	221.2,94.9 221.1,95 221,95.2 220.9,95.4 220.8,95.7 220.9,96 220.9,96.2 221,96.3 221.1,96.4 221.2,96.5 221.3,96.6 221.4,96.7 
	221.5,96.8 221.7,96.8 221.8,96.8 221.9,96.9 222.1,96.9 222.2,96.8 222.4,96.8 222.6,96.7 222.8,96.5 222.9,96.4 223,96.1 
	223.1,95.9 223.1,95.7 223.1,95.5 223,95.3 222.9,95.1 222.8,95 222.6,94.8 "/>
<polygon id="XMLID_47_" class="st7" points="241.6,111.9 239.8,112.4 238.4,114.1 237.5,117.3 238.1,119.2 240.2,121.5 249,126.6 
	258.2,133.5 267.1,141.7 270.2,143.6 271.6,143.4 272,142.2 270.6,139 266.8,132.6 261.1,125.5 253,117.7 247.3,113.3 244,112 "/>
<polygon id="XMLID_46_" class="st4" points="229.6,108.4 229.4,108.3 229.2,108.2 228.8,108.2 228.5,108.3 228.2,108.4 228,108.5 
	227.8,108.7 227.5,108.9 227.4,109.1 227.2,109.5 227.1,110 227.2,110.5 227.3,110.7 227.4,110.9 227.5,111.1 227.7,111.3 
	227.8,111.4 228,111.5 228.2,111.6 228.5,111.7 228.7,111.7 228.9,111.8 229.1,111.8 229.3,111.7 229.6,111.6 229.9,111.4 
	230.2,111.2 230.4,111 230.6,110.6 230.6,110.3 230.7,110 230.6,109.6 230.5,109.3 230.4,109 230.2,108.8 229.9,108.5 "/>
<polygon id="XMLID_45_" class="st4" points="234.3,106 234.2,105.9 234,105.9 233.8,105.9 233.5,106 233.3,106 233.1,106.1 
	233,106.3 232.8,106.4 232.7,106.6 232.5,106.9 232.5,107.2 232.5,107.6 232.6,107.7 232.7,107.9 232.8,108 232.9,108.1 233,108.2 
	233.1,108.3 233.3,108.4 233.5,108.5 233.6,108.5 233.8,108.5 233.9,108.5 234.1,108.5 234.3,108.4 234.5,108.3 234.7,108.1 
	234.9,107.9 235,107.7 235.1,107.4 235.1,107.2 235.1,106.9 235,106.7 234.9,106.5 234.7,106.3 234.6,106.1 "/>
<polygon id="XMLID_44_" points="162.2,153.5 160.8,151.9 157.7,150.6 153.4,149.6 149.7,149.4 143.8,149.7 133.9,150.8 126.9,149.3 
	121.6,147.1 118.4,146.5 115.9,146.4 113.3,146.9 111.2,147.7 108.1,149.9 106.1,149.4 104.3,149.1 102.6,149.3 101.3,149.7 
	100,150.4 98.5,151.8 96.8,154.6 92.7,155.2 91.2,156 90.3,156.8 88.8,158.9 88.5,161.4 88.7,163.5 89.5,165.5 93.2,169.7 
	101.6,179.3 107.5,185 113.6,189.5 120.2,193.8 125.2,195.9 130.5,197.2 135.9,198 143,196.9 149.2,194.7 153.9,191.7 158,187.3 
	162.7,180.8 164.6,174.2 165.2,167.7 165.1,162.5 164.9,159.2 163.6,155.8 "/>
<polygon id="XMLID_43_" class="st0" points="218.6,172.9 217.8,172.3 217,172 215.8,171.6 214.4,171.6 213.4,171.8 212.5,172.1 
	211.5,172.5 210.5,173.1 209.8,173.8 208.8,175.2 208.1,176.8 208,178.4 208.1,179.3 208.3,180.1 208.7,181 209.1,181.7 
	209.5,182.3 210.1,182.9 210.8,183.5 211.6,183.9 212.2,184.2 213,184.5 213.7,184.7 214.7,184.7 216,184.6 216.9,184.2 
	218.1,183.6 219.1,182.9 220,181.7 220.6,180.6 220.9,179.5 221.1,178.1 221,176.8 220.6,175.7 220.2,174.8 219.5,173.8 "/>
<polygon id="XMLID_42_" class="st2" points="217.4,174.6 216.7,174.3 216.3,174.6 216.3,175.2 216.5,176.5 216.4,177.8 215.7,179.6 
	214.9,180.9 214.9,181.8 215.5,182.4 216.2,182.5 217.5,181.8 218.6,180.5 219.2,179 219.3,177.8 219.1,176.3 218.6,175.4 
	217.9,174.9 "/>
<polygon id="XMLID_41_" class="st0" points="209.6,169.7 209,169.2 208.2,168.8 207.3,168.6 206,168.5 205.2,168.7 204.4,168.9 
	203.6,169.3 202.7,169.8 202.1,170.4 201.2,171.6 200.7,173 200.6,174.4 200.6,175.1 200.8,175.8 201.2,176.6 201.5,177.2 
	201.9,177.7 202.4,178.2 203,178.7 203.7,179.1 204.2,179.3 204.8,179.6 205.5,179.7 206.3,179.7 207.4,179.6 208.2,179.3 
	209.2,178.8 210.1,178.2 210.9,177.2 211.4,176.2 211.6,175.3 211.8,174.1 211.7,173 211.4,172 211,171.3 210.4,170.4 "/>
<polygon id="XMLID_40_" class="st2" points="208.6,171.1 208.1,170.8 207.7,171.1 207.7,171.6 207.9,172.7 207.8,173.8 207.2,175.4 
	206.5,176.5 206.5,177.3 207,177.8 207.6,177.9 208.7,177.3 209.6,176.2 210.1,174.9 210.3,173.8 210.1,172.6 209.6,171.8 
	209.1,171.3 "/>
<polygon id="XMLID_39_" class="st0" points="201.4,163.5 200.8,163 200,162.7 199.1,162.4 197.8,162.4 197,162.5 196.2,162.8 
	195.4,163.1 194.5,163.7 193.9,164.3 193,165.4 192.5,166.8 192.4,168.2 192.4,168.9 192.6,169.7 193,170.4 193.3,171 193.7,171.5 
	194.1,172 194.8,172.5 195.5,172.9 196,173.2 196.6,173.4 197.3,173.5 198.1,173.6 199.2,173.5 200,173.2 201,172.7 201.8,172 
	202.7,171 203.2,170.1 203.4,169.1 203.6,168 203.5,166.8 203.2,165.9 202.8,165.1 202.2,164.2 "/>
<polygon id="XMLID_38_" class="st2" points="200.4,164.9 199.9,164.7 199.5,164.9 199.5,165.4 199.7,166.6 199.6,167.6 199,169.2 
	198.3,170.3 198.3,171.1 198.8,171.6 199.4,171.7 200.5,171.1 201.4,170 201.9,168.7 202.1,167.6 201.9,166.4 201.4,165.6 
	200.9,165.2 "/>
<polygon id="XMLID_37_" class="st0" points="194.2,158.1 193.6,157.5 192.9,157.1 192,156.6 190.8,156.4 190,156.4 189.1,156.5 
	188.2,156.8 187.3,157.2 186.6,157.7 185.6,158.6 184.8,159.9 184.5,161.3 184.4,162 184.5,162.8 184.7,163.5 184.9,164.2 
	185.2,164.8 185.6,165.3 186.1,166 186.8,166.4 187.3,166.8 187.8,167.1 188.5,167.4 189.2,167.5 190.3,167.6 191.2,167.4 
	192.3,167.1 193.2,166.6 194.2,165.7 194.8,164.9 195.3,163.9 195.6,162.9 195.6,161.7 195.5,160.7 195.3,159.9 194.8,158.9 "/>
<polygon id="XMLID_36_" class="st2" points="193,159.3 192.4,159 192,159.2 191.9,159.7 191.9,160.8 191.7,161.9 190.8,163.4 
	189.9,164.3 189.9,165.1 190.3,165.7 190.9,165.9 192.1,165.5 193.1,164.5 193.8,163.3 194.1,162.3 194.2,161.1 193.8,160.2 
	193.3,159.7 "/>
<polygon id="XMLID_35_" class="st0" points="186.9,151 186.4,150.5 185.7,150 184.8,149.6 183.6,149.4 182.7,149.4 181.9,149.5 
	181,149.7 180.1,150.1 179.4,150.6 178.4,151.6 177.6,152.9 177.2,154.2 177.2,155 177.3,155.7 177.5,156.5 177.7,157.2 178,157.8 
	178.4,158.3 178.9,158.9 179.6,159.4 180,159.7 180.6,160.1 181.3,160.3 182,160.5 183.1,160.5 184,160.4 185,160 186,159.5 
	187,158.7 187.6,157.8 188,156.9 188.3,155.8 188.4,154.7 188.3,153.7 188.1,152.9 187.6,151.9 "/>
<polygon id="XMLID_34_" class="st2" points="185.8,152.3 185.2,152 184.8,152.1 184.7,152.6 184.7,153.8 184.4,154.8 183.6,156.3 
	182.7,157.3 182.6,158.1 183.1,158.6 183.6,158.8 184.9,158.4 185.9,157.5 186.6,156.3 186.9,155.3 187,154 186.6,153.2 
	186.1,152.6 "/>
<polygon id="XMLID_33_" class="st0" points="181,145.6 180.6,145 180.1,144.5 179.3,144 178.3,143.6 177.6,143.5 176.8,143.4 
	176,143.5 175.2,143.7 174.4,144.1 173.4,144.8 172.5,145.8 172,146.9 171.9,147.6 171.8,148.2 171.9,148.9 172,149.6 172.2,150.1 
	172.4,150.6 172.8,151.3 173.3,151.8 173.7,152.2 174.1,152.5 174.6,152.8 175.3,153.1 176.2,153.3 177,153.3 178,153.2 
	178.9,152.9 179.9,152.3 180.6,151.6 181.1,150.9 181.5,150 181.8,149 181.8,148.1 181.7,147.3 181.4,146.4 "/>
<polygon id="XMLID_32_" class="st2" points="179.8,146.5 179.3,146.1 179,146.2 178.8,146.6 178.7,147.6 178.2,148.5 177.3,149.7 
	176.4,150.4 176.2,151.1 176.5,151.6 176.9,151.9 178.1,151.7 179.1,151.1 179.9,150.1 180.4,149.3 180.6,148.2 180.4,147.4 
	180.1,146.8 "/>
<polygon id="XMLID_31_" class="st0" points="175.6,140 175.2,139.6 174.8,139.2 174.3,138.8 173.5,138.5 172.9,138.4 172.3,138.4 
	171.7,138.5 171.1,138.6 170.5,138.9 169.7,139.4 169.1,140.2 168.7,141.1 168.6,141.5 168.5,142.1 168.6,142.6 168.7,143.1 
	168.8,143.5 169,143.9 169.3,144.4 169.7,144.8 169.9,145.1 170.3,145.3 170.7,145.6 171.2,145.8 171.9,145.9 172.5,145.9 
	173.3,145.8 174,145.6 174.7,145.1 175.2,144.6 175.6,144.1 175.9,143.4 176.1,142.6 176.2,141.9 176.1,141.4 175.9,140.7 "/>
<polygon id="XMLID_30_" class="st2" points="174.6,140.7 174.3,140.4 174,140.5 173.9,140.8 173.8,141.6 173.4,142.3 172.7,143.2 
	172,143.7 171.9,144.2 172.1,144.7 172.4,144.9 173.3,144.7 174.1,144.2 174.7,143.5 175.1,142.8 175.2,142 175.1,141.4 174.8,141 
	"/>
<polygon id="XMLID_29_" class="st0" points="171.7,135.3 171.5,134.9 171.1,134.6 170.6,134.3 169.9,134 169.4,133.9 168.9,133.9 
	168.4,134 167.8,134.1 167.4,134.4 166.6,134.8 166.1,135.5 165.7,136.3 165.6,136.7 165.6,137.1 165.7,137.6 165.7,138 
	165.8,138.4 166,138.7 166.3,139.2 166.6,139.5 166.8,139.7 167.1,140 167.5,140.2 167.9,140.4 168.6,140.5 169.1,140.5 
	169.7,140.4 170.3,140.2 171,139.8 171.4,139.4 171.8,138.9 172.1,138.3 172.2,137.6 172.3,137 172.2,136.5 172,135.9 "/>
<polygon id="XMLID_28_" class="st2" points="170.9,135.9 170.6,135.7 170.4,135.8 170.3,136 170.2,136.7 169.9,137.3 169.2,138.1 
	168.6,138.6 168.5,139 168.7,139.4 169,139.6 169.8,139.5 170.5,139 171,138.4 171.3,137.8 171.4,137.1 171.3,136.6 171.1,136.2 "/>
<polygon id="XMLID_27_" class="st0" points="168.7,130.8 168.5,130.4 168.2,130.2 167.8,129.9 167.2,129.6 166.7,129.6 166.3,129.6 
	165.8,129.6 165.3,129.7 164.9,129.9 164.3,130.3 163.8,130.9 163.5,131.6 163.4,131.9 163.4,132.3 163.4,132.8 163.5,133.1 
	163.6,133.4 163.8,133.7 164,134.1 164.2,134.4 164.5,134.6 164.7,134.8 165,135 165.4,135.2 166,135.3 166.4,135.3 167,135.2 
	167.5,135 168.1,134.7 168.5,134.3 168.8,133.9 169,133.3 169.2,132.8 169.2,132.2 169.2,131.8 169,131.3 "/>
<polygon id="XMLID_26_" class="st2" points="168,131.3 167.8,131.1 167.6,131.2 167.5,131.4 167.4,132 167.1,132.5 166.6,133.2 
	166,133.6 165.9,134 166.1,134.3 166.4,134.5 167,134.4 167.7,134 168.1,133.4 168.4,132.9 168.5,132.3 168.4,131.8 168.2,131.5 "/>
<polygon id="XMLID_25_" class="st0" points="166.4,126.8 166.2,126.5 166,126.2 165.6,125.9 165.1,125.7 164.7,125.5 164.3,125.5 
	163.9,125.5 163.4,125.6 163,125.7 162.4,126 161.9,126.5 161.6,127.1 161.5,127.4 161.4,127.8 161.4,128.1 161.5,128.5 
	161.5,128.8 161.6,129.1 161.8,129.4 162,129.7 162.2,129.9 162.4,130.1 162.7,130.3 163,130.5 163.5,130.7 163.9,130.7 
	164.4,130.7 164.9,130.6 165.5,130.3 165.9,130 166.2,129.6 166.4,129.2 166.6,128.7 166.7,128.2 166.7,127.8 166.6,127.3 "/>
<polygon id="XMLID_24_" class="st2" points="165.7,127.2 165.5,127 165.3,127.1 165.2,127.3 165.1,127.8 164.8,128.3 164.2,128.8 
	163.7,129.1 163.6,129.5 163.7,129.8 163.9,130 164.5,129.9 165.1,129.6 165.6,129.2 165.9,128.8 166,128.2 166,127.8 165.8,127.4 
	"/>
<polygon id="XMLID_23_" class="st0" points="164.4,123.3 164.2,123.1 164,122.8 163.7,122.6 163.3,122.4 163,122.3 162.7,122.3 
	162.3,122.3 162,122.3 161.7,122.4 161.2,122.7 160.8,123.1 160.5,123.5 160.4,123.8 160.4,124.1 160.4,124.4 160.4,124.6 
	160.4,124.9 160.5,125.1 160.6,125.4 160.8,125.7 161,125.8 161.2,126 161.4,126.2 161.6,126.3 162,126.4 162.4,126.5 162.8,126.4 
	163.2,126.4 163.6,126.1 163.9,125.9 164.2,125.6 164.4,125.2 164.6,124.8 164.6,124.4 164.6,124.1 164.5,123.7 "/>
<polygon id="XMLID_22_" class="st2" points="163.8,123.7 163.7,123.5 163.5,123.5 163.4,123.7 163.3,124.1 163.1,124.5 162.6,124.9 
	162.2,125.2 162.1,125.5 162.2,125.7 162.4,125.9 162.9,125.8 163.4,125.6 163.7,125.2 164,124.9 164.1,124.4 164,124.1 
	163.9,123.8 "/>
<polygon id="XMLID_21_" class="st0" points="162.6,120.1 162.5,119.8 162.3,119.6 162,119.3 161.6,119.1 161.3,119 160.9,119 
	160.6,119 160.2,119 159.9,119.1 159.4,119.4 159,119.8 158.8,120.3 158.7,120.5 158.6,120.8 158.6,121.1 158.6,121.4 158.7,121.6 
	158.8,121.9 158.9,122.1 159.1,122.4 159.2,122.6 159.4,122.7 159.6,122.9 159.9,123 160.3,123.2 160.6,123.2 161,123.2 
	161.4,123.1 161.9,122.9 162.2,122.6 162.4,122.3 162.7,122 162.8,121.6 162.9,121.2 162.9,120.8 162.8,120.4 "/>
<polygon id="XMLID_20_" class="st2" points="162.1,120.4 161.9,120.2 161.8,120.3 161.7,120.4 161.6,120.9 161.3,121.2 160.9,121.7 
	160.5,121.9 160.3,122.2 160.4,122.5 160.6,122.6 161.1,122.6 161.6,122.3 162,122 162.2,121.6 162.3,121.2 162.3,120.8 
	162.2,120.6 "/>
<polygon id="XMLID_19_" class="st0" points="194.8,266.2 193.6,268.4 192.1,270.5 189.9,272.5 187.4,274.1 185.1,274.8 181.7,275.5 
	178.7,275.2 175.9,274 173.2,272.6 171.9,271.6 170.3,271.4 168.5,271.7 166.3,271.1 165.6,270.5 165.6,268.5 165.9,266.6 
	166.3,264.7 166.2,263.5 164.6,259.4 163.4,255.5 162.9,252.5 162.9,251.2 163.6,250.6 166.5,250.6 170.9,250.1 174.3,249.7 
	175.2,250.1 175.4,252 176,254.7 176.7,257.6 177.4,260.4 177.4,262.3 177.4,263.8 176.8,264 176.3,264.4 176.2,264.5 176.2,264.7 
	176.3,264.7 176.8,264.6 177.3,264.5 177.5,264.5 178.2,265 178,265.2 177.9,265.4 177.8,265.6 177.8,265.7 178,265.7 178.2,265.6 
	178.4,265.4 178.6,265.3 180.7,266.3 184.7,267.4 187.7,267.2 189.7,266.5 191.6,265.5 193.2,264.3 194,263.9 194.7,264.1 
	195,264.9 "/>
<polygon id="XMLID_18_" class="st2" points="170.8,251.9 170.1,252.1 169.2,252.6 168.6,253.9 170.1,259.2 172.1,263.2 173,263.3 
	173.4,262.7 173.4,258.9 173.1,256.3 172.5,252.9 171.9,252.3 "/>
<polygon id="XMLID_17_" class="st2" points="178.2,269.4 178.3,270.4 179.3,271.3 182.4,272 186.5,271.7 190,269.6 190.3,268.3 
	189.6,267.9 186.4,269.2 183.4,269.4 179.3,268.3 178.6,268.6 "/>
<polygon id="XMLID_16_" class="st0" points="157.6,268.7 157.5,270.2 156.7,272.2 154.8,275.1 153,276.7 150.2,278.6 148,279 
	145.5,279.3 140.9,279.3 138.4,278.5 137,277.8 136.1,276.7 134.5,276.5 133.3,276.8 130.2,276 128.8,274.9 128.3,274 128.1,272.5 
	128.3,270.9 128.8,269.3 128.8,268.4 128.1,266.6 127.1,263.2 126.2,259.9 125.6,256.9 125.7,255.4 126.2,254.7 128.4,254.5 
	132.3,254.2 135.2,253.8 137.9,253.7 138.4,254.3 138.7,257.2 138.7,259.2 139.6,262.1 140.4,264.8 140.3,268.1 140.4,268.3 
	139.8,268.7 139.5,268.9 139.5,269.1 139.6,269.2 139.8,269.2 140.4,268.9 140.5,268.9 141.1,269.5 140.6,270.2 140.4,270.5 
	140.4,270.7 140.5,270.8 140.7,270.7 141.2,270.2 141.8,270 143.4,270.5 146.8,271.3 149.6,271.4 151.5,271.3 153.3,270.4 
	155.2,269.4 156.6,268.4 157.3,268.4 "/>
<polygon id="XMLID_15_" class="st2" points="134.7,256.6 133.3,256.4 132.6,256.6 131.7,257.4 131.3,258.7 131.8,261.4 133.2,265.4 
	135.2,267.8 136.2,268.2 136.6,267.7 136.6,267.2 135.6,263.6 135.2,260.5 135,257.5 134.8,256.9 "/>
<polygon id="XMLID_14_" class="st2" points="140.6,272.3 140,273 139.6,274.3 140.1,275.1 142.1,275.8 145.6,275.6 149.8,274.4 
	150.9,273.3 150.7,272.7 149.9,272.6 146.9,272.8 144.2,272.6 142.2,272.2 141.2,272 "/>
<polygon id="XMLID_13_" class="st4" points="149.4,159 147.6,157.8 144.8,157.5 140.1,158 133.5,159.1 127.2,159.1 121.7,158.4 
	119.7,158.6 119.5,159.9 120.5,161.5 125.3,164.2 134.1,166.9 141.8,167.6 146.2,166.3 149.2,164.1 150.1,161.8 150.1,160.2 "/>
<polygon id="XMLID_12_" class="st4" points="146.1,174.6 144,172.4 140.4,171.4 134.1,170.9 125.2,170.7 117,169.2 109.9,166.9 
	107.3,166.8 106.7,168.4 107.6,170.7 113.3,175.5 124.1,181.1 134,183.9 140,183.3 144.5,181.1 146.3,178.4 146.7,176.2 "/>
<polygon id="XMLID_11_" class="st4" points="169,218.1 167.1,218 164.5,218.9 163.4,219.9 163.7,223.6 164.8,227.6 165.7,228.4 
	166.7,228.1 167.7,227.1 169.1,223.6 170,219.4 169.5,218.6 "/>
<polygon id="XMLID_10_" class="st4" points="129.3,217.7 127.4,217.4 125.3,217.9 124.3,219 124,221.7 125,226.5 126.6,229.3 
	128.8,231.7 129.7,231.8 130.5,231.3 130.7,230.3 131.2,225.4 131.2,220.3 130.5,218.4 "/>
<polygon id="XMLID_9_" class="st4" points="166.5,234.1 165.6,234 165,234.1 164.5,234.5 164.4,235.4 164.6,238.9 164.3,242 
	165.5,244.9 166.7,246.8 167.4,246.6 167.3,245.9 166.2,242.3 166.2,238.8 166.8,235.3 166.8,234.5 "/>
<polygon id="XMLID_8_" class="st4" points="130.9,239.4 130,239.3 129.4,239.3 128.9,239.7 128.8,240.7 129,244.2 128.7,247.2 
	129.9,250.2 131.1,252.1 131.8,251.8 131.7,251.1 130.6,247.6 130.6,244.1 131.2,240.5 131.2,239.8 "/>
<polygon id="XMLID_7_" class="st4" points="16.5,105 18.1,105.6 23.9,106.4 31.8,108.1 37.7,110.3 40.4,111.3 40.7,110.5 
	38.5,108.7 31.5,105.1 24.6,102.7 17.8,102 16.1,102.6 16,104.3 "/>
<polygon id="XMLID_6_" class="st4" points="8.2,94.5 7.4,93.3 7.9,91.6 8.6,90.8 10.9,90.3 13.2,90.5 19.1,92.6 27.2,95.9 
	37.5,101.6 46.7,108.2 48.9,111.2 48.6,112 47.8,111.7 42.5,107.6 35.4,103.5 25.1,99.7 17.1,97.4 10.8,95.6 9.4,95.2 "/>
<polygon id="XMLID_5_" class="st4" points="21.8,89.7 24,90.5 30.1,92.4 35.7,94.9 42.7,98.8 48.9,103 50.5,104 50.8,103.4 
	47.9,100.2 42.1,95.2 36.5,91.8 30,88.2 24.9,86.2 22.1,85.7 20.6,86.7 20.6,88.7 "/>
<polygon id="XMLID_4_" points="203.1,63.8 199.5,65 196.3,67 194.5,68.6 190.3,68.6 184,67.6 177.1,65.8 173,64.6 171,65.2 
	169.9,66.8 168.7,70.7 168.7,76.1 170.3,82.1 172.3,87.5 174.6,91.1 177.5,92.3 179.2,91.8 181.6,89.1 185.9,85.8 190,83.1 
	194.3,81 197.2,79.9 199.9,81.1 203.9,82 208.8,81.1 211.2,79 212.6,78.5 216.3,78.6 220.9,78.8 228.1,79.7 234.4,80.9 238.5,81.4 
	240.3,80 241.1,76.6 240,68.7 238.1,63.6 235.6,58.1 232,54.9 229.2,54.1 226.3,54.5 222,56.7 217.4,60.5 213.3,63.1 209.2,65.4 
	206.6,64.4 "/>
<path id="XMLID_70_" class="st8" d="M195.7,77.7l-0.7-1.6l-1.4,0.7l-1.9,1l-0.8,0.4h-0.5v-0.4l0.4-0.5l1.6-1.6l1.5-1.2l0.6-0.4
	l-0.3-2h-0.7h-1.4l-0.7-0.1l-0.1-0.3l0.3-0.3l1.5-0.4l1.5-0.2l0.1-1.2l-0.6-0.1l-5,0.2l-8.5-1.7l-6.7-1.2l-1.7,0.5l-1.4,2.6
	l-0.5,4.3l1,4.3l1.4,6.1l1.4,3.1l1.6,2.1l1.3,0.9l1.2-0.2l1.2-0.9l4.1-4l5-3.3l5.8-2.4l1.6-0.5L195.7,77.7z M210.9,66.9l0.2,0.3
	l1.8-0.5l1.5-0.2l0.6,0.1V67l-0.2,0.3l-2,0.9l-0.8,0.4l0.3,2.2l1.2,0.3L217,72l0.7,0.5v0.3l-0.4,0.4h-2.8l-2.1-0.2v0.2l-0.9,2.4
	l-0.8,1.9l14.1,0.5l10.9,1.6l2.6-0.5l0.9-2.4l-1.1-8.9l-3.5-8.8l-1.4-1.7l-2.4-1.3l-1.7-0.6l-4.1,1.2l-8.2,6.2l-6.4,3.3L210.9,66.9z
	 M196.1,69.8l-0.4,1.8l0.1,2.2l0.9,2.6l0.9,1.7l1.3,1l1.4,0.7l2.1,0.3l2.6,0.1l2.1-0.4l1.8-0.8l1.1-1.2l0.5-1.9l0.5-2l0.2-2
	l-0.3-1.7l-1-2.2l-0.9-1l-0.3-0.2l-1.2-0.7l-2-0.5l-2-0.2l-1.9,0.3l-2.6,1l-1.9,1.5L196.1,69.8z"/>
<polygon class="st9" points="441.6,33.7 433.2,30.9 425.6,30 417,31.6 407.5,35.5 398.4,41.8 391.3,50.6 385.1,62.6 382.1,75 
	382.9,84.6 385.1,93.4 389.1,100.7 396,109.3 404.5,115.7 416.7,119.5 425.6,119.7 433.5,118.6 444.2,115.2 446.1,111.2 449.4,96.7 
	449.6,89.5 448,88.4 442.2,89 429.9,89.2 424.4,88.2 421.2,87.1 418.7,85.6 416.2,82.9 414.8,79.8 414.6,75.7 415.6,70.9 
	417.2,67.6 419.5,65.1 425.1,62.7 431.9,60.8 438.7,60 444.1,59.9 445.3,54.5 446.2,42.4 445.5,37 "/>
<path class="st9" d="M456.2,101.9l-0.5,0.3l-0.6,0.6l-0.6,1.2l-0.3,1.1l-0.1,1.3l0.2,1.4l0.6,1l1.2,0.7l1.4,0.2l1.4-0.2l1.1-0.6
	l0.7-1.2l0.3-1.5l0-1.4l-0.5-1.4l-0.7-1l-0.6-0.5l-0.8-0.3l-1,0l-0.7,0.2L456.2,101.9z M453.7,96l-1.3,0.9l-1.7,1.6l-1.5,3.2
	l-0.7,2.9l-0.1,3.6l0.7,3.9l1.5,2.6l3.2,2l3.9,0.4l3.8-0.6l2.9-1.8l2-3.2l0.8-4.1l0-3.8l-1.4-3.8l-2-2.8l-1.7-1.4l-2.1-0.7l-2.6,0.1
	l-2,0.5L453.7,96z"/>
<path class="st9" d="M491.7,102.7l-0.5,0.3l-0.6,0.6l-0.5,1.1l-0.2,1l0,1.2l0.2,1.3l0.5,0.9l1.1,0.7l1.4,0.2l1.3-0.2l1-0.6l0.7-1.1
	l0.3-1.4l0-1.3l-0.5-1.3l-0.7-1l-0.6-0.5l-0.7-0.3l-0.9,0l-0.7,0.2L491.7,102.7z M489.4,97.1l-1.3,0.8l-1.6,1.5l-1.4,3l-0.7,2.7
	l-0.1,3.3l0.6,3.7l1.4,2.5l3,1.8l3.7,0.4l3.5-0.5l2.7-1.7l1.8-3l0.8-3.9l0-3.6l-1.3-3.6l-1.9-2.6l-1.6-1.3l-2-0.7l-2.5,0.1l-1.9,0.5
	L489.4,97.1z"/>
<polygon class="st9" points="503.1,103.1 502.6,108.6 502,115.8 501.6,119.2 502,120.1 505.5,120.3 511.1,120 511.9,119.6 
	511.8,117.3 511.3,113 511.3,111.9 511.7,111.7 512.2,111.8 513.3,113.3 516.3,117.7 517.4,119.1 519.5,119.2 524.2,118.9 
	524.6,118.4 524.4,117.5 520.8,112.3 518.4,108.3 517.5,106.3 517,105.1 517.2,104.2 519.2,101.2 522.2,97.8 522.5,97.3 522.4,96.5 
	522.1,95.8 521.5,95.4 516.2,94.7 512.9,94.6 512,94.7 511.5,95.2 511.2,98 510.5,101.7 510.4,101.8 510.2,101.8 510,101.8 
	509.8,101.7 509.7,99.9 509.4,97.8 509.4,97.8 509.4,97.8 509.2,96.2 509,95.8 509,95.8 508.7,95.4 506.5,94.9 504.8,94.6 
	502.7,94.5 501.5,94.5 500.9,94.8 501.1,95.4 502.1,96.7 502.9,99 "/>
<path class="st9" d="M529.7,102.5l-0.5,0.3l-0.6,0.6l-0.5,1.1l-0.2,1l0,1.2l0.2,1.3l0.5,0.9l1.1,0.7l1.4,0.2l1.3-0.2l1-0.6l0.7-1.1
	l0.3-1.4l0-1.3l-0.5-1.3l-0.7-1l-0.6-0.5l-0.7-0.3l-0.9,0l-0.7,0.2L529.7,102.5z M527.4,97l-1.3,0.8l-1.6,1.5l-1.4,3l-0.7,2.7
	l-0.1,3.3l0.6,3.7l1.4,2.5l3,1.8l3.7,0.4l3.5-0.5l1.4-0.9l0.7,0.9l1.3,1.2l1.8,1.1l1.5,0l2.3-0.8l1.4-1.5l-0.1-1.2l-1.4-1.1
	l-0.9-1.8l-0.1-4.8l0.5-9l-0.2-2.3l-0.8-0.5l-0.9-0.3l-2.3-0.2l-1.2,0.5l-0.7,2.6l-1.6-1.3l-2-0.7l-2.5,0.1l-1.9,0.5L527.4,97z"/>
<path class="st9" d="M406.2,156.5l-0.8,0.5l-1.1,1l-1,2l-0.5,1.8l-0.1,2.2l0.4,2.4l0.9,1.6l2,1.2l2.5,0.3l2.4-0.3l1.8-1.1l1.2-2
	l0.5-2.6l0-2.4l-0.9-2.4l-1.3-1.8l-1-0.9l-1.3-0.5l-1.6,0.1l-1.3,0.3L406.2,156.5z M404.2,134.2l-0.6,0.4l-0.8,0.7l-0.7,1.5
	l-0.3,1.3l-0.1,1.6l0.3,1.8l0.7,1.2l1.5,0.9l1.8,0.2l1.8-0.3l1.3-0.8l0.9-1.5l0.4-1.9l0-1.8l-0.6-1.8l-0.9-1.3l-0.8-0.6l-1-0.3
	l-1.2,0l-0.9,0.2L404.2,134.2z M396,138.7l-0.6,7.5l-1,25.3l-0.4,7.1l0.6,1.4l5.6,0.5l5.5-0.4l3.4-0.7l2.8-0.6l3.2-0.8l3-1.5l3-2.2
	l1.5-3.8l0.8-8.8l-1.2-3.8l-1.6-3.7l-2.7-3.4l-3.8-2.8l2.4-4.3l0.7-2.6l0-3.3l-0.2-2.5l-0.5-2.5l-0.9-2.2l-0.8-1.5l-1.2-1l-1.3-1.1
	l-1.8-0.8l-6.6-0.6l-0.9,0l-3.9-0.6l-3.4-0.3l-1.5-0.3l-1.3-0.4l-0.6,0.2l-0.3,0.5l0.2,0.9l1,1.3l1,2l0.7,2.7l0.6,4.7L396,138.7z"/>
<path class="st9" d="M433.3,160.6l-0.6,0.4l-0.7,0.7l-0.6,1.4l-0.3,1.2l-0.1,1.5l0.3,1.6l0.6,1.1l1.4,0.8l1.7,0.2l1.6-0.2l1.2-0.7
	l0.8-1.3l0.3-1.7l0-1.6l-0.6-1.6l-0.9-1.2l-0.7-0.6l-0.9-0.3l-1.1,0l-0.9,0.2L433.3,160.6z M430.5,153.8l-1.5,1l-1.9,1.9l-1.7,3.7
	l-0.8,3.3l-0.2,4.1l0.8,4.5l1.7,3l3.7,2.2l4.5,0.5l4.3-0.6l3.3-2l2.2-3.7l0.9-4.8l0-4.4l-1.6-4.4l-2.3-3.2l-1.9-1.6l-2.5-0.9l-3,0.1
	l-2.3,0.6L430.5,153.8z"/>
<path class="st9" d="M456.9,150.4l-0.6,0.4l-0.7,0.7l-0.6,1.4l-0.3,1.2l-0.1,1.5l0.3,1.6l0.6,1.1l1.4,0.8l1.7,0.2l1.6-0.2l1.2-0.7
	l0.8-1.3l0.3-1.7l0-1.6l-0.6-1.6l-0.9-1.2l-0.7-0.6l-0.9-0.3l-1.1,0l-0.9,0.2L456.9,150.4z M449.4,150.2l-0.5,7.5l-0.4,9l-0.7,8.6
	l-0.7,5.6l1.3,0.8l3.6,0.3l4-0.3l3.1-0.7l1.4-2l-0.5-3.7l0.4-8.8l3.3-1.2l3.1-3.1l1.7-3.8l0.3-4.9l-0.6-4.3l-1.1-2.3l-1.8-1.5
	l-3.8-1.3L457,144l-2.7,0.1h0L451,144l-1.8,0.1l-2.3,0.2l-0.6,0.2l0.1,0.4l0.4,0.4l1.2,0.8l0.9,1.7L449.4,150.2z"/>
<path class="st9" d="M478,160.5l-0.6,0.4l-0.7,0.7l-0.6,1.4l-0.3,1.2l-0.1,1.5l0.3,1.6l0.6,1.1l1.4,0.8l1.7,0.2l1.6-0.2l1.2-0.7
	l0.8-1.3l0.3-1.7l0-1.6l-0.6-1.6l-0.8-1.2l-0.7-0.6l-0.9-0.3l-1.1,0l-0.9,0.2L478,160.5z M475.2,153.7l-1.5,1l-1.9,1.9l-1.7,3.7
	l-0.8,3.3l-0.2,4.1l0.8,4.5l1.7,3l3.7,2.2l4.5,0.5l4.3-0.6l3.3-2l2.2-3.7l0.9-4.8l0-4.4l-1.6-4.4l-2.3-3.2l-1.9-1.6l-2.5-0.9l-3,0.1
	l-2.3,0.6L475.2,153.7z"/>
<polygon class="st9" points="492.3,156.4 492.3,158.3 492.2,165.3 491.7,173.8 491,177.9 491.9,178.9 494.4,178.9 497.6,178.6 
	499.5,178.1 500,175.2 500.4,169.4 501.3,168.3 503.4,168.1 505.1,168.2 505.7,169.4 505.4,172.8 505.9,177.5 507,177.9 
	510.8,177.6 512.4,177.1 513.3,176.1 512.4,164.1 512.7,156.6 513.1,154.7 514.1,152.6 515.2,151.1 515.6,150.4 515.5,149.9 
	515,149.6 513.9,149.4 509.7,149.6 507.7,150.2 507.2,150.9 506.8,151.8 505.7,157.5 505.2,162.1 504,162.8 500.6,162.1 
	500.3,158.9 500.1,155.7 500.1,153.1 499.8,152.1 499.2,151.4 498.4,151 496.7,150.5 495.3,150.3 492.8,150.2 490.6,150.6 
	490.3,150.9 490.3,151.4 491.2,152.6 492.1,154.4 "/>
<path class="st9" d="M523.3,160.8l-0.6,0.4l-0.7,0.7l-0.6,1.4l-0.3,1.2l-0.1,1.5l0.3,1.6l0.6,1.1l1.4,0.8l1.7,0.2l1.6-0.2l1.2-0.7
	l0.8-1.3l0.3-1.7l0-1.6l-0.6-1.6l-0.8-1.2l-0.7-0.6l-0.9-0.3l-1.1,0l-0.9,0.2L523.3,160.8z M520.5,154l-1.5,1l-1.9,1.9l-1.7,3.7
	l-0.8,3.3l-0.2,4.1l0.8,4.5l1.7,3l3.7,2.2l4.5,0.5l4.3-0.6l1.7-1.1l0.8,1l1.5,1.5l2.2,1.3l1.9,0l2.8-1l1.7-1.8l-0.1-1.4l-1.8-1.4
	l-1.1-2.3l-0.2-5.9l0.7-11.1l-0.3-2.9l-1-0.6l-1.2-0.4l-2.8-0.3l-1.4,0.6l-0.8,3.2l-1.9-1.6l-2.5-0.9l-3,0.1l-2.3,0.6L520.5,154z"/>
<path class="st9" d="M475.1,93.9l-0.5,0.3l-0.6,0.6l-0.5,1.1l-0.2,1l0,1.2l0.2,1.3l0.5,0.9l1.1,0.7l1.4,0.2l1.3-0.2l1-0.6l0.7-1.1
	l0.3-1.4l0-1.3l-0.5-1.3l-0.7-1l-0.6-0.5l-0.7-0.3l-0.9,0l-0.7,0.2L475.1,93.9z M469.1,93.8l-0.4,6.1l-0.4,7.4l-0.6,7l-0.6,4.6
	l1.1,0.7l2.9,0.3l3.3-0.2l2.6-0.5l1.1-1.7l-0.4-3l0.4-7.1l2.7-1l2.5-2.5l1.4-3.1l0.2-4l-0.5-3.5l-0.9-1.8L482,90L479,89l-3.7-0.2
	l-2.2,0.1l0,0l-2.7-0.1l-1.5,0.1L467,89l-0.5,0.2l0.1,0.3l0.4,0.3l1,0.7l0.7,1.4L469.1,93.8z"/>
<path class="st10" d="M399.3,132.4c-0.1-0.2-0.1-0.4-0.1-0.6c0-0.3,0-0.5,0-0.8c0-0.3,0-0.5,0-0.8c0-0.1,0-0.1,0-0.1
	c0,0,0.1,0,0.1,0 M399.4,128.3c-0.1-0.3-0.2-0.6-0.2-1c0-0.2,0-0.4,0.1-0.6"/>
<line class="st9" x1="525.9" y1="87.1" x2="528.8" y2="87.2"/>
</svg>
