<?xml version="1.0" encoding="utf-8"?>
<!-- Generator: Adobe Illustrator 20.0.0, SVG Export Plug-In . SVG Version: 6.00 Build 0)  -->
<svg version="1.1" id="Layer_1" xmlns="http://www.w3.org/2000/svg" xmlns:xlink="http://www.w3.org/1999/xlink" x="0px" y="0px"
	 viewBox="0 0 283.5 283.5" style="enable-background:new 0 0 283.5 283.5;" xml:space="preserve">
<style type="text/css">
	.st0{fill:#FFFFFF;}
</style>
<g id="BKLV7Z.tif">
	<g>
		<path class="st0" d="M85.1,84.3c-5.3,1.8-10.5,3.4-15.5,5.4c-16.8,6.5-32.6,14.7-45.3,27.9C5.4,137.2,5.9,164,25.5,183
			c7.5,7.2,16.4,12.4,26,16.2c3.9,1.6,8,2.9,11.9,4.3c-2.1-5.2-4.5-9.8-5.8-14.7c-2.5-9.1,1.6-14.5,10.9-15.4
			c8.3-0.8,15.6,1.7,22.1,6.8c1.8,1.4,3.5,2.9,5.3,4.4c8.4-13.9,17.5-15.1,28.4-3.3c5.6,6.1,9.9,13.4,14.8,20.2
			c0.9,1.2,1.6,2.6,2.5,4.1c3.5-5.4,6.2-10.7,9.9-15.2c4.5-5.4,9.3-10.7,14.8-14.8c6-4.5,12.7-2.8,17.4,3.2c1.4,1.8,2.5,3.8,3.9,5.8
			c2-1.7,3.7-3.3,5.6-4.7c6.3-4.8,13.3-7.2,21.3-6.6c10,0.9,14.1,6.5,11.1,16.3c-1.4,4.7-3.7,9-5.7,13.8
			c14.3-4.2,27.5-10.2,38.2-20.7c18.8-18.3,19.9-44,2.3-63.5c-16.7-18.5-38.9-27.5-62.2-34.8c1.9,5.2,4.1,9.8,5.4,14.7
			c2.6,10-1.9,18.6-11.6,23.6c-8.2,4.3-17.8,2.5-24.4-4.6c-4.8-5.3-7.3-11.7-8.4-18.6c-1.1-6.8-1.6-13.8-2.4-21.5
			c-1.8,2.6-3.7,4.4-4.4,6.7c-2.1,7.3-7,8.9-13.9,8.2c-3.1-0.3-4.6-1.1-5.9-3.9c-1.7-3.7-4-7-6.1-10.6c-1.2,5.8-1.3,11.1-2,16.3
			c-1,8.4-3.1,16.5-8.9,23c-6.6,7.5-16.3,9.4-24.7,5c-9.9-5.2-14.2-13.9-11.5-24C81,93.9,83.2,89.4,85.1,84.3z"/>
		<path d="M85.1,84.3c-1.9,5.2-4.1,9.6-5.3,14.4c-2.7,10.2,1.6,18.9,11.5,24c8.3,4.4,18.1,2.5,24.7-5c5.8-6.6,7.9-14.6,8.9-23
			c0.7-5.2,0.8-10.5,2-16.3c2.1,3.5,4.4,6.9,6.1,10.6c1.3,2.8,2.8,3.6,5.9,3.9c6.9,0.7,11.7-0.9,13.9-8.2c0.7-2.2,2.6-4.1,4.4-6.7
			c0.8,7.7,1.3,14.7,2.4,21.5c1.1,6.9,3.5,13.3,8.4,18.6c6.6,7.2,16.2,9,24.4,4.6c9.7-5.1,14.1-13.7,11.6-23.6
			c-1.2-4.9-3.5-9.5-5.4-14.7c23.3,7.3,45.5,16.3,62.2,34.8c17.6,19.5,16.5,45.2-2.3,63.5c-10.8,10.5-24,16.5-38.2,20.7
			c2-4.8,4.3-9.1,5.7-13.8c2.9-9.8-1.1-15.4-11.1-16.3c-8-0.7-15,1.7-21.3,6.6c-1.8,1.4-3.6,3-5.6,4.7c-1.3-2-2.4-4-3.9-5.8
			c-4.7-6-11.4-7.7-17.4-3.2c-5.5,4.2-10.3,9.5-14.8,14.8c-3.7,4.5-6.4,9.7-9.9,15.2c-0.9-1.5-1.6-2.9-2.5-4.1
			c-4.9-6.8-9.2-14.1-14.8-20.2c-10.9-11.9-20-10.6-28.4,3.3c-1.8-1.5-3.5-3-5.3-4.4c-6.5-5.1-13.8-7.6-22.1-6.8
			c-9.3,0.9-13.4,6.3-10.9,15.4c1.3,4.9,3.7,9.5,5.8,14.7c-3.9-1.4-8-2.7-11.9-4.3c-9.6-3.8-18.5-9-26-16.2
			C5.9,164,5.4,137.2,24.3,117.5C37,104.3,52.8,96.1,69.6,89.6C74.6,87.7,79.8,86.1,85.1,84.3z"/>
	</g>
</g>
</svg>
