<?xml version="1.0" encoding="utf-8"?>
<!-- Generator: Adobe Illustrator 20.0.0, SVG Export Plug-In . SVG Version: 6.00 Build 0)  -->
<svg version="1.1" id="Layer_1" xmlns="http://www.w3.org/2000/svg" xmlns:xlink="http://www.w3.org/1999/xlink" x="0px" y="0px"
	 viewBox="0 0 283.5 283.5" style="enable-background:new 0 0 283.5 283.5;" xml:space="preserve">
<style type="text/css">
	.st0{fill:#231F20;}
</style>
<path class="st0" d="M141.7,251.9l-2.4-1.4c-26.9-15.9-57.3-38-60.9-70.2c-5.7,1-11.4,1.8-17.1,2.6c-2.3,0.3-4.7,0.6-7,1l-3.3,0.5
	l-1.5-3c-5-9.5-13.6-28.8-15.3-50.3c-1.4-17,2.1-31.6,10-42.6C36.6,76.3,37.7,60,47.4,40l0.9-1.9l2.1-0.6
	c33.5-9.1,67.1,9.9,77.7,16.7l7-7l-7.6-7.6c-1.8-1.8-1.8-4.8,0-6.6l0.1-0.1c1.8-1.8,4.8-1.8,6.6,0l7.6,7.6l7.6-7.6
	c1.8-1.8,4.8-1.8,6.6,0L156,33c1.8,1.8,1.8,4.8,0,6.6l-7.6,7.6l7,7c10.6-6.8,44.1-25.8,77.7-16.7l2.1,0.6l0.9,1.9
	c9.7,20.1,10.8,36.3,3.2,48.4c8,11.1,11.4,25.6,10,42.6c-1.8,21.5-10.4,40.7-15.3,50.3l-1.5,3l-3.3-0.5c-2.3-0.3-4.7-0.6-7-1
	c-5.7-0.8-11.4-1.5-17.1-2.6c-3.6,32.2-34,54.3-60.9,70.2L141.7,251.9z M87.7,178.2c2.6,27.8,29.5,47.9,54,62.7
	c43.3-26.2,52.8-46.9,54.1-62.7c-9.1-2.3-17.9-5.8-26-11.6c-9.5-6.9-13.9-14.5-13.2-22.7c0.7-8.7,7.8-15.1,16.5-14.9
	c20.8,0.5,31.2,24.2,32.2,41.7c6,1.2,12.1,2,18.1,2.8c1.3,0.2,2.5,0.3,3.7,0.5c12-24.4,19.3-56.9,5.9-78.1c0,0,0,0,0,0
	c-5,4.5-14.1,9.6-23.1,8.9c-5.2-0.4-9.7-2.6-12.9-6.5c-4.3-5.2-4.8-13.1-1.1-18.7c2.6-4,6.8-6.5,11.9-7.1c8.9-1.1,19.3,3.5,24.8,8.4
	c4-8.7,2.6-20.2-4.1-34.8c-17.6-4-35.4,0.7-47.5,5.5c-13.9,5.6-23.4,12.4-23.5,12.5l-3.3,2.4l-12.6-12.6l-12.6,12.6l-3.3-2.4
	c-0.1-0.1-9.6-7-23.5-12.5c-12-4.8-29.9-9.6-47.5-5.5c-6.7,14.6-8.1,26.1-4.1,34.8c5.5-4.9,15.9-9.5,24.8-8.4
	c5.2,0.6,9.3,3.1,11.9,7.1c3.7,5.7,3.2,13.5-1.1,18.7c-3.2,3.9-7.7,6.1-12.9,6.5c-9.1,0.6-18.1-4.4-23.1-8.9c0,0,0,0,0,0
	c-5.7,9-8,20.5-6.9,34.4c1.1,13.6,5.7,29.3,12.8,43.7c1.2-0.2,2.5-0.3,3.7-0.5c6-0.8,12.1-1.6,18.1-2.8c1-17.4,11.4-41.2,32.2-41.7
	c8.7-0.2,15.8,6.2,16.5,14.9c0.7,8.2-3.8,15.8-13.2,22.7C105.6,172.4,96.8,175.9,87.7,178.2z M110.7,138.4c-0.1,0-0.1,0-0.2,0
	c-13.6,0.3-21.2,16.9-22.7,30c7.2-2.1,14.1-5,20.3-9.4c6.6-4.8,9.8-9.6,9.4-14.3C117.2,141.1,114.3,138.4,110.7,138.4z M172.8,138.4
	c-3.6,0-6.5,2.7-6.8,6.3c-0.4,4.7,2.8,9.5,9.4,14.3c6.1,4.4,13,7.4,20.3,9.4c-1.6-13.1-9.1-29.7-22.7-30
	C172.9,138.4,172.8,138.4,172.8,138.4z M56.4,88.6c0.1,0.1,0.2,0.2,0.4,0.3c3.8,3.4,10.5,6.9,16.1,6.5c2.7-0.2,4.7-1.2,6.3-3.1
	c1.7-2.1,1.9-5.3,0.5-7.6c-1.1-1.7-2.8-2.6-5.2-2.9c-5.8-0.7-13.8,2.7-17.6,6.3C56.7,88.2,56.5,88.4,56.4,88.6z M210.6,81.7
	c-0.6,0-1.1,0-1.6,0.1c-2.4,0.3-4.1,1.2-5.2,2.9c-1.5,2.2-1.3,5.5,0.5,7.6c1.6,1.9,3.7,2.9,6.3,3.1c5.7,0.4,12.3-3.1,16.1-6.5
	c0.1-0.1,0.2-0.2,0.4-0.3c-0.2-0.2-0.3-0.3-0.5-0.5C223.1,84.8,216.2,81.7,210.6,81.7z"/>
</svg>
