<?xml version="1.0" encoding="utf-8"?>
<!-- Generator: Adobe Illustrator 20.0.0, SVG Export Plug-In . SVG Version: 6.00 Build 0)  -->
<svg version="1.1" id="Layer_1" xmlns="http://www.w3.org/2000/svg" xmlns:xlink="http://www.w3.org/1999/xlink" x="0px" y="0px"
	 viewBox="0 0 400 400" style="enable-background:new 0 0 400 400;" xml:space="preserve">
<style type="text/css">
	.st0{fill:#2756A7;}
</style>
<g>
	<path class="st0" d="M200,37.2c90.1,0,163.2,72.8,163.7,162.8h18.2C381.4,100,300.2,19,200,19S18.6,100,18.1,200h18.2
		C36.8,110,109.9,37.2,200,37.2z"/>
	<path class="st0" d="M200,75.1c69.2,0,125.3,55.8,125.8,124.9h19.6C344.9,120.1,280,55.5,200,55.5S55.1,120.1,54.6,200h19.6
		C74.7,130.9,130.8,75.1,200,75.1z"/>
	<path class="st0" d="M200,112.9c48.3,0,87.5,38.9,88,87.1h20.2C307.7,140.7,259.5,92.7,200,92.7S92.3,140.7,91.8,200H112
		C112.5,151.8,151.7,112.9,200,112.9z"/>
	<path class="st0" d="M200,149.2c28.3,0,51.2,22.7,51.7,50.8h18c-0.5-38.1-31.5-68.8-69.7-68.8s-69.2,30.7-69.7,68.8h18
		C148.8,171.9,171.7,149.2,200,149.2z"/>
	<path class="st0" d="M200,182.4c9.9,0,18,7.8,18.5,17.6h15.8c-0.5-18.5-15.6-33.4-34.3-33.4s-33.8,14.9-34.3,33.4h15.8
		C182,190.2,190.1,182.4,200,182.4z"/>
</g>
</svg>
