<?xml version="1.0" encoding="utf-8"?>
<!-- Generator: Adobe Illustrator 20.0.0, SVG Export Plug-In . SVG Version: 6.00 Build 0)  -->
<svg version="1.1" id="Layer_1" xmlns="http://www.w3.org/2000/svg" xmlns:xlink="http://www.w3.org/1999/xlink" x="0px" y="0px"
	 viewBox="0 0 200 200" style="enable-background:new 0 0 200 200;" xml:space="preserve">
<style type="text/css">
	.st0{fill:#121328;}
</style>
<path class="st0" d="M52.5,72.5c3.7,17.9,2.2,41.1,3,61.8c-5.3,0.3-10.8,1.1-16.3,1.7c-0.3,4-0.8,8.1-1.5,12.1
	c5.7-0.5,11.4-1.1,17-1.6c4,7.5,1.9,24.3,2.3,33.8c3.8-1.9,7.7-3.7,11.9-5.3c-0.6-10.1-1.6-21.1-1.2-29.3c17.9-2.7,37.2-4,55.7-6.1
	c1.2,8.3,1.6,17.3,2.2,26.3c4.2,0.1,8.3,0.3,12.3,0.7c-0.8-9.2-1.7-18.3-1.5-28.4c14.4-1.5,28.7-3.1,42-5.6c-3.3-4-6.3-8.2-9.1-12.6
	c-11.3,1.4-22.7,2.7-33.7,4.5c-2.8-16.8-2.3-36.9-4.6-54.2c5.9-0.5,12.3-0.4,18.4-0.6c-1.1-5.5-1.9-11-2.4-16.6
	c-6,0.1-12.1,0.2-17.6-0.4c0.3-11.4-1.3-22.8-1.9-32.9c-4.6,1.9-9.4,3.6-14.4,5c1.3,10.2,2.6,20.8,2.5,29.4
	C98,54.1,81.8,55.7,64,55.7c-0.5-6.9-1.1-16.3-1.3-25.8c-3.5-0.2-7-0.5-10.4-0.9c0.6,8.9,0.9,18.1,1.1,27.5
	c-6.2,0.1-12.1,0.4-18,0.6c-1.3,4.4-2.7,8.7-4.4,12.9c0.4,1,0.8,2,1.2,3C39.5,72.8,46.6,72.6,52.5,72.5z M118.1,70.2
	c1.5,18.3,3.7,36.1,4.6,54.9c-17.4,3.8-37.2,5-55.7,7.6c-1.6-16.8-1.2-41.3-3-60.3C81.2,70.6,98.6,71,118.1,70.2z"/>
</svg>
