<?xml version="1.0" encoding="utf-8"?>
<!-- Generator: Adobe Illustrator 20.0.0, SVG Export Plug-In . SVG Version: 6.00 Build 0)  -->
<svg version="1.1" id="Layer_1" xmlns="http://www.w3.org/2000/svg" xmlns:xlink="http://www.w3.org/1999/xlink" x="0px" y="0px"
	 viewBox="0 0 378 378" style="enable-background:new 0 0 378 378;" xml:space="preserve">
<style type="text/css">
	.st0{fill:#4B4F54;}
</style>
<g>
	<polygon class="st0" points="218.7,343 250.1,343 250.1,140.8 218.7,86.4 	"/>
	<polygon class="st0" points="354.8,322.2 354.8,343 366.8,343 	"/>
	<polygon class="st0" points="340.8,297.9 309.4,243.6 309.4,343 340.8,343 	"/>
	<polygon class="st0" points="295.4,219.4 264.1,165 264.1,343 295.4,343 	"/>
	<polygon class="st0" points="113.9,165 82.6,219.4 82.6,343 113.9,343 	"/>
	<polygon class="st0" points="159.3,86.4 127.9,140.8 127.9,343 159.3,343 	"/>
	<polygon class="st0" points="37.2,343 68.6,343 68.6,243.6 37.2,297.9 	"/>
	<polygon class="st0" points="173.3,343 204.7,343 204.7,62.2 189,35 173.3,62.2 	"/>
	<polygon class="st0" points="23.2,322.2 11.2,343 23.2,343 	"/>
</g>
</svg>
