<?xml version="1.0" encoding="utf-8"?>
<!-- Generator: Adobe Illustrator 20.0.0, SVG Export Plug-In . SVG Version: 6.00 Build 0)  -->
<svg version="1.1" id="Layer_1" xmlns="http://www.w3.org/2000/svg" xmlns:xlink="http://www.w3.org/1999/xlink" x="0px" y="0px"
	 viewBox="0 0 235.1 235.1" style="enable-background:new 0 0 235.1 235.1;" xml:space="preserve">
<style type="text/css">
	.st0{fill:#FFFFFF;}
	.st1{fill:none;stroke:#1F2552;stroke-width:3.1713;stroke-miterlimit:10;}
	.st2{fill:#1F2552;}
</style>
<g>
	<g>
		<path class="st0" d="M-584.9-50c3.2,0,3.2-5,0-5C-588.2-55-588.2-50-584.9-50L-584.9-50z"/>
	</g>
</g>
<g>
	<path id="XMLID_86_" class="st1" d="M66,104.1"/>
	<line id="XMLID_84_" class="st1" x1="66.6" y1="104.1" x2="66.6" y2="129.7"/>
	<polygon id="XMLID_83_" class="st1" points="67.2,104.1 117.8,139.7 168.5,104.1 117.8,69.7 	"/>
	<line id="XMLID_82_" class="st1" x1="169.1" y1="104.1" x2="169.1" y2="129.7"/>
	<line id="XMLID_81_" class="st1" x1="66.6" y1="104.1" x2="66.6" y2="129.7"/>
	<line id="XMLID_80_" class="st1" x1="117.8" y1="139.8" x2="117.8" y2="165.4"/>
	<line id="XMLID_73_" class="st1" x1="117.2" y1="164.1" x2="66.6" y2="129.7"/>
	<path id="XMLID_77_" class="st1" d="M117.9,164.1"/>
	<line id="XMLID_88_" class="st1" x1="169.1" y1="129.7" x2="118.5" y2="164.1"/>
	<path id="XMLID_70_" class="st1" d="M117.9,164.1"/>
	<polygon id="XMLID_75_" class="st2" points="97.1,103.8 117.8,118.4 138.6,103.8 117.8,89.7 	"/>
	<path id="XMLID_87_" class="st2" d="M169.1,149.7"/>
	<path id="XMLID_85_" class="st2" d="M148.3,163.8"/>
</g>
</svg>
