<?xml version="1.0" encoding="utf-8"?>
<!-- Generator: Adobe Illustrator 20.0.0, SVG Export Plug-In . SVG Version: 6.00 Build 0)  -->
<svg version="1.1" id="Layer_1" xmlns="http://www.w3.org/2000/svg" xmlns:xlink="http://www.w3.org/1999/xlink" x="0px" y="0px"
	 viewBox="0 0 400 400" style="enable-background:new 0 0 400 400;" xml:space="preserve">
<style type="text/css">
	.st0{fill:#5C525B;}
</style>
<g>
	<polygon id="XMLID_2262_" class="st0" points="216.4,119.8 265.3,119.8 256.6,102.4 216.4,102.4 	"/>
	<polygon id="XMLID_2260_" class="st0" points="216.4,149.5 280.1,149.5 271.8,132.7 216.4,132.7 	"/>
	<polygon id="XMLID_2258_" class="st0" points="216.4,60.3 235.6,60.3 226.4,42.1 216.4,42.1 	"/>
	<polygon id="XMLID_2257_" class="st0" points="216.4,177.2 294,177.2 285.3,159.8 216.4,159.8 	"/>
	<polygon id="XMLID_2256_" class="st0" points="216.4,89.1 249.9,89.1 242,73.2 216.4,73.2 	"/>
	<polygon id="XMLID_2255_" class="st0" points="216.4,323.8 367.3,323.8 358.5,306.2 216.4,306.2 	"/>
	<polygon id="XMLID_2251_" class="st0" points="216.4,263.8 337.3,263.8 328.5,246.2 216.4,246.2 	"/>
	<polygon id="XMLID_2250_" class="st0" points="216.4,294.1 352.5,294.1 342.9,275 216.4,275 	"/>
	<polygon id="XMLID_2248_" class="st0" points="216.4,235 322.9,235 314.2,217.6 216.4,217.6 	"/>
	<polygon id="XMLID_2246_" class="st0" points="206.4,42.1 216.4,42.1 216.4,22.1 216.4,22.1 	"/>
	<polygon id="XMLID_2243_" class="st0" points="216.4,206.9 308.8,206.9 300.5,190.1 216.4,190.1 	"/>
	<polygon id="XMLID_2242_" class="st0" points="216.4,263.8 95.6,263.8 90,275 216.4,275 	"/>
	<polygon id="XMLID_2238_" class="st0" points="216.4,206.9 124,206.9 118.7,217.6 216.4,217.6 	"/>
	<polygon id="XMLID_2237_" class="st0" points="216.4,235 110,235 104.4,246.2 216.4,246.2 	"/>
	<polygon id="XMLID_2236_" class="st0" points="65.6,323.8 59.8,335.3 59.8,335.4 216.4,335.4 216.4,323.8 	"/>
	<polygon id="XMLID_2235_" class="st0" points="216.4,294.1 80.4,294.1 74.4,306.2 216.4,306.2 	"/>
	<polygon id="XMLID_2229_" class="st0" points="216.4,89.1 182.9,89.1 176.2,102.5 216.4,102.5 	"/>
	<polygon id="XMLID_2228_" class="st0" points="216.4,60.3 197.3,60.3 190.9,73.2 216.4,73.2 	"/>
	<polygon id="XMLID_2226_" class="st0" points="216.4,119.8 167.5,119.8 161.1,132.7 216.4,132.7 	"/>
	<polygon id="XMLID_2224_" class="st0" points="216.4,177.2 138.9,177.2 132.4,190.1 216.4,190.1 	"/>
	<polygon id="XMLID_2222_" class="st0" points="216.4,149.5 152.7,149.5 147.6,159.8 216.4,159.8 	"/>
</g>
</svg>
