<?xml version="1.0" encoding="utf-8"?>
<!-- Generator: Adobe Illustrator 20.0.0, SVG Export Plug-In . SVG Version: 6.00 Build 0)  -->
<svg version="1.1" id="Layer_1" xmlns="http://www.w3.org/2000/svg" xmlns:xlink="http://www.w3.org/1999/xlink" x="0px" y="0px"
	 viewBox="0 0 378 378" style="enable-background:new 0 0 378 378;" xml:space="preserve">
<style type="text/css">
	.st0{fill:#313036;}
	.st1{fill:#F5EAAB;}
</style>
<polygon class="st0" points="324.2,284.3 206.3,207.2 277.4,328.8 198,212.4 217.2,352 188.4,214.1 152.7,350.4 178.8,211.9 
	93.7,324.2 170.8,206.3 49.2,277.4 165.6,198 26,217.2 163.9,188.4 27.6,152.7 166.1,178.8 53.8,93.7 171.7,170.8 100.6,49.2 
	180,165.6 160.8,26 189.6,163.9 225.3,27.6 199.2,166.1 284.3,53.8 207.2,171.7 328.8,100.6 212.4,180 352,160.8 214.1,189.6 
	350.4,225.3 211.9,199.2 "/>
<polygon class="st0" points="354.2,196 213.4,194.9 339,258.7 209.3,203.8 300.9,310.8 202.1,210.4 245.8,344.3 192.9,213.8 
	182,354.2 183.1,213.4 119.3,339 174.2,209.3 67.2,300.9 167.6,202.1 33.7,245.8 164.2,192.9 23.8,182 164.6,183.1 39,119.3 
	168.7,174.2 77.1,67.2 175.9,167.6 132.2,33.7 185.1,164.2 196,23.8 194.9,164.6 258.7,39 203.8,168.7 310.8,77.1 210.4,175.9 
	344.3,132.2 213.8,185.1 "/>
<circle class="st1" cx="189" cy="189" r="29"/>
</svg>
