<?xml version="1.0" encoding="utf-8"?>
<!-- Generator: Adobe Illustrator 20.0.0, SVG Export Plug-In . SVG Version: 6.00 Build 0)  -->
<svg version="1.1" id="Layer_1" xmlns="http://www.w3.org/2000/svg" xmlns:xlink="http://www.w3.org/1999/xlink" x="0px" y="0px"
	 viewBox="0 0 235.1 235.1" style="enable-background:new 0 0 235.1 235.1;" xml:space="preserve">
<style type="text/css">
	.st0{fill:#FFFFFF;}
	.st1{fill:none;stroke:#6D6E70;stroke-width:2.5808;stroke-miterlimit:10;}
	.st2{fill:#2C654E;}
	.st3{fill:#231F20;}
	.st4{fill:#981C1F;}
</style>
<g>
	<g>
		<path class="st0" d="M-584.9-50c3.2,0,3.2-5,0-5C-588.2-55-588.2-50-584.9-50L-584.9-50z"/>
	</g>
</g>
<g>
	<path class="st1" d="M59.6,117.6h111.9H59.6z"/>
	<g>
		<path class="st2" d="M66.9,124.8c4,0,7.3-3.2,7.3-7.2c0-4-3.3-7.2-7.3-7.2c-4,0-7.3,3.2-7.3,7.2C59.6,121.5,62.9,124.8,66.9,124.8
			"/>
		<path class="st3" d="M112.2,129.5c6.7,0,12-5.4,12-12c0-6.6-5.4-12-12-12c-6.6,0-12,5.4-12,12
			C100.2,124.1,105.5,129.5,112.2,129.5"/>
		<path class="st4" d="M157.5,135.4c9.9,0,18-8,18-17.8c0-9.9-8.1-17.8-18-17.8c-9.9,0-18,8-18,17.8
			C139.5,127.4,147.6,135.4,157.5,135.4"/>
	</g>
</g>
</svg>
