<?xml version="1.0" encoding="utf-8"?>
<!-- Generator: Adobe Illustrator 20.0.0, SVG Export Plug-In . SVG Version: 6.00 Build 0)  -->
<svg version="1.1" id="Layer_1" xmlns="http://www.w3.org/2000/svg" xmlns:xlink="http://www.w3.org/1999/xlink" x="0px" y="0px"
	 viewBox="0 0 235.1 235.1" style="enable-background:new 0 0 235.1 235.1;" xml:space="preserve">
<style type="text/css">
	.st0{fill:#FFFFFF;}
	.st1{fill:none;stroke:#6D6E70;stroke-width:2.3617;stroke-miterlimit:10;}
	.st2{fill:#231F20;}
	.st3{fill:#2C654E;}
</style>
<g>
	<g>
		<path class="st0" d="M-584.9-50c3.2,0,3.2-5,0-5C-588.2-55-588.2-50-584.9-50L-584.9-50z"/>
	</g>
</g>
<g>
	<path class="st1" d="M173.7,168.2V74.5V168.2z"/>
	<path class="st2" d="M173.7,77c4.9,0,8.9-4,8.9-8.9c0-4.9-4-8.9-8.9-8.9c-4.9,0-8.9,4-8.9,8.9C164.7,73,168.7,77,173.7,77"/>
	<path class="st3" d="M173.7,121.3c4.4,0,8-3.5,8-7.9c0-4.4-3.6-7.9-8-7.9c-4.4,0-8,3.5-8,7.9C165.7,117.8,169.3,121.3,173.7,121.3"
		/>
	<path class="st2" d="M173.7,175.9c9.5,0,17.2-7.7,17.2-17.1c0-9.4-7.7-17.1-17.2-17.1c-9.5,0-17.2,7.7-17.2,17.1
		C156.5,168.2,164.2,175.9,173.7,175.9"/>
</g>
</svg>
