<?xml version="1.0" encoding="utf-8"?>
<!-- Generator: Adobe Illustrator 20.0.0, SVG Export Plug-In . SVG Version: 6.00 Build 0)  -->
<svg version="1.1" id="Layer_1" xmlns="http://www.w3.org/2000/svg" xmlns:xlink="http://www.w3.org/1999/xlink" x="0px" y="0px"
	 viewBox="0 0 235.1 235.1" style="enable-background:new 0 0 235.1 235.1;" xml:space="preserve">
<style type="text/css">
	.st0{fill:#FFFFFF;}
	.st1{fill:#EC2024;stroke:#EC2024;stroke-width:4;stroke-linejoin:round;stroke-miterlimit:10;}
</style>
<g>
	<g>
		<path class="st0" d="M-584.9-50c3.2,0,3.2-5,0-5C-588.2-55-588.2-50-584.9-50L-584.9-50z"/>
	</g>
</g>
<path class="st1" d="M37.3,117.3c0,13.7,1.6,19.3,21.3,33.4c5,3.6,12.5,9.2,19.8,14.6c6,4.5,11.9,8.9,16.2,12
	c10.7,8.7,17.2,3.1,18,2.4c0.2-0.2,0.5-0.4,0.7-0.6c1.8-1.3,43.8-31.5,55.3-39.4c3.4-2.9,5.6-6.3,5.9-9.6c0.4-4-1.9-7.3-2.6-8.2
	c-3.7-4.8-11-10-18.7-15.5c-3.1-2.2-6.2-4.4-9.2-6.7c-7.1-5.2-13-3.2-14.4-2.6L115,109.4c-2.6,2.2-6.4,1.7-8.4-1.2
	c-2-2.9-1.5-7,1.1-9.2l15-12.6c0.2-0.2,0.5-0.4,0.8-0.6c0.5-0.3,12.8-7.4,27.2,3.1c3,2.3,6.1,4.5,9.1,6.6c8.5,6.1,16.5,11.8,21.3,18
	c1.9,2.4,6.2,9.1,5.3,18.1c-0.7,7.1-4.4,13.5-11,19c-11.3,7.8-51.1,36.4-55.2,39.4c-2.8,2.6-7.9,5.4-14.4,5.4
	c-5.3,0-11.5-1.9-18.1-7.2c-4.1-3-10-7.4-16.1-11.9c-7.2-5.4-14.6-11-19.6-14.5c-21.2-15.2-26.7-24.4-26.7-44.3H37.3z"/>
<path class="st1" d="M206.3,117.3c0-16.6-3-18.5-7.6-21.3l-1-0.6c-8.6-5.4-20.5-14.6-32.1-23.5c-6.6-5.1-13.1-10.1-18.7-14.2
	c-10.7-8.7-17.2-3.1-18-2.4c-0.2,0.2-0.5,0.4-0.7,0.6c-1.8,1.3-43.8,31.5-55.3,39.4c-3.4,2.9-5.6,6.3-5.9,9.7
	c-0.4,4,1.9,7.3,2.6,8.2c3.7,4.8,11,10,18.7,15.5c3.1,2.2,6.2,4.4,9.2,6.7c7.1,5.2,13,3.2,14.4,2.6l14.4-12.2
	c2.6-2.2,6.4-1.7,8.4,1.2c2,2.9,1.5,7-1.1,9.2l-15,12.6c-0.2,0.2-0.5,0.4-0.8,0.6c-0.5,0.3-12.8,7.4-27.2-3.1c-3-2.3-6.1-4.5-9-6.6
	c-8.5-6.1-16.5-11.8-21.3-18c-1.9-2.5-6.2-9.1-5.3-18.1c0.7-7.1,4.4-13.5,11-19c11.3-7.8,51.1-36.4,55.2-39.4
	c5.1-4.7,17.9-10,32.4,1.9c5.5,4,12,9,18.7,14.2c11.3,8.7,23.1,17.7,31.2,22.9l0.9,0.6c7.7,4.8,13.7,10.3,13.7,32.7H206.3z"/>
</svg>
