<?xml version="1.0" encoding="utf-8"?>
<!-- Generator: Adobe Illustrator 19.0.0, SVG Export Plug-In . SVG Version: 6.00 Build 0)  -->
<svg version="1.1" id="Слой_1" xmlns="http://www.w3.org/2000/svg" xmlns:xlink="http://www.w3.org/1999/xlink" x="0px" y="0px"
	 viewBox="0 0 283.5 162.5" style="enable-background:new 0 0 283.5 162.5;" xml:space="preserve">
<style type="text/css">
	.st0{fill-rule:evenodd;clip-rule:evenodd;fill:#575756;}
	.st1{fill-rule:evenodd;clip-rule:evenodd;fill:#FFFBDC;}
	.st2{fill-rule:evenodd;clip-rule:evenodd;fill:#2595CA;}
	.st3{fill-rule:evenodd;clip-rule:evenodd;}
	.st4{fill-rule:evenodd;clip-rule:evenodd;fill:#FFFFFF;}
</style>
<polygon id="XMLID_14_" class="st0" points="182.1,65.8 178.2,68.7 171.7,57.5 162.9,37.7 157.5,22.3 156.7,16.7 158.9,14.6 
	161,14.9 167.1,26.3 180.2,47.2 187.5,56.4 187.7,58.7 186,62.6 "/>
<polygon id="XMLID_13_" class="st0" points="207.5,56.2 202.9,57.4 200.9,44.6 199.7,23 200.1,6.7 201.4,1.2 204.2,0 206.1,1 
	207.7,13.9 212.4,38.1 216,49.3 215.3,51.5 212.3,54.5 "/>
<polygon id="XMLID_12_" class="st0" points="222.8,56.7 218.1,55.8 222,43.4 230.5,23.6 238.2,9.1 241.7,4.7 244.8,4.9 246,6.6 
	241.7,18.9 235.2,42.7 233.5,54.3 231.9,56 227.8,57.4 "/>
<polygon id="XMLID_11_" class="st1" points="172.6,73.2 167.4,82.7 164.7,90.7 162.8,100.8 163.1,112.3 165.7,123.4 169.6,133 
	175.7,142 184.9,150.8 194.3,156.5 204.4,160.4 213.3,162.5 224.6,162.4 232.4,161.3 238.8,158.9 244.8,155.9 249.9,152.8 
	256.5,148.3 262.2,142.3 266.2,137 269.6,131.2 272.2,124.7 274.8,117.1 276,109.5 275.8,102 273.3,88.2 266,74.7 255.9,64.4 
	248.8,59.1 240,54.7 231.3,51.7 222.9,50.1 214.3,49.7 202,51.3 192.5,55.2 185.5,59.2 179.6,64.9 "/>
<polygon id="XMLID_10_" class="st2" points="182.5,83.2 178.7,89.9 176.8,95.6 175.4,102.8 175.7,111 177.5,119 180.3,125.8 
	184.7,132.2 191.2,138.5 197.9,142.6 205.2,145.3 211.5,146.8 219.5,146.8 225.1,145.9 229.7,144.2 234,142.1 237.6,139.9 
	242.2,136.7 246.3,132.4 249.2,128.7 251.6,124.5 253.5,119.9 255.3,114.5 256.2,109 256.1,103.7 254.2,93.8 249,84.2 241.9,76.9 
	236.8,73.1 230.5,69.9 224.3,67.8 218.3,66.7 212.2,66.4 203.4,67.6 196.6,70.3 191.6,73.2 187.5,77.2 "/>
<polyline id="XMLID_9_" class="st3" points="229.8,94.1 225.9,90.2 223.2,88.1 219.8,86.4 216.5,85.3 213.2,84.7 209.9,84.5 
	205.2,85.1 201.6,86.6 198.9,88.2 196.6,90.3 194,93.5 192,97.2 190.9,100.2 190.2,104.1 190.3,108.5 191.3,112.8 192.8,116.4 
	195.1,119.9 198.7,123.3 202.3,125.5 206.2,126.9 209.6,127.7 213.9,127.7 216.9,127.3 219.3,126.4 221.6,125.2 223.6,124 
	226.1,122.3 228.3,120 229.8,118 231.1,115.8 232.1,113.2 233.1,110.3 233.6,107.4 233.5,104.6 232.5,99.3 229.8,94.1 "/>
<polygon id="XMLID_8_" class="st4" points="221.5,87.8 220.8,89 220.4,90.1 220.2,91.5 220.2,93 220.6,94.6 221.1,95.8 221.9,97.1 
	223.2,98.3 224.4,99 225.8,99.6 227,99.8 228.5,99.8 229.6,99.7 230.4,99.3 231.3,98.9 231.9,98.5 232.8,97.9 233.6,97.1 
	234.1,96.4 234.6,95.6 235,94.7 235.3,93.7 235.5,92.7 235.5,91.7 235.1,89.8 234.1,88 232.8,86.6 231.8,85.8 230.6,85.3 
	229.4,84.9 228.3,84.6 227.1,84.6 225.5,84.8 224.2,85.3 223.2,85.9 222.4,86.6 "/>
<polygon id="XMLID_7_" class="st0" points="87.4,73.5 83.1,71.4 89.9,60.4 103.1,43.3 114.1,31.2 118.6,27.8 121.6,28.8 122.3,30.7 
	115.1,41.5 102.9,62.9 98.3,73.8 96.4,75 92,75.4 "/>
<polygon id="XMLID_6_" class="st0" points="62,68.9 57.2,69.1 58.1,56.2 61.6,34.9 65.6,19 68.1,13.9 71.1,13.4 72.7,14.8 
	71.4,27.7 70.7,52.3 71.8,64 70.7,66 67,68.4 "/>
<polygon id="XMLID_5_" class="st0" points="40.2,80.4 35.7,81.8 33.1,69.1 31,47.6 30.8,31.2 31.8,25.7 34.6,24.4 36.5,25.3 
	38.6,38.1 44.3,62.1 48.4,73.1 47.8,75.4 44.9,78.6 "/>
<polygon id="XMLID_4_" class="st1" points="26.4,79.1 21.8,87.5 19.4,94.5 17.7,103.5 18,113.7 20.3,123.5 23.7,132 29.1,139.9 
	37.2,147.7 45.6,152.8 54.5,156.2 62.4,158 72.4,158 79.3,157 85,154.9 90.3,152.2 94.8,149.5 100.6,145.5 105.6,140.2 109.2,135.5 
	112.1,130.4 114.5,124.6 116.7,117.9 117.8,111.2 117.7,104.5 115.4,92.3 109,80.4 100.1,71.3 93.8,66.6 86,62.7 78.3,60.1 
	70.8,58.6 63.3,58.3 52.4,59.7 44,63.2 37.8,66.7 32.6,71.7 "/>
<polyline id="XMLID_3_" class="st2" points="78.7,138.4 81.9,136.4 86.1,133.5 89.8,129.7 92.4,126.3 94.5,122.5 96.2,118.3 
	97.8,113.5 98.6,108.6 98.5,103.8 96.9,95 92.2,86.4 85.8,79.8 81.2,76.3 75.6,73.5 70,71.6 64.6,70.6 59.1,70.3 51.2,71.4 
	45.2,73.8 40.6,76.4 36.9,80.1 32.4,85.4 29.1,91.5 27.4,96.6 26.1,103 26.3,110.4 28,117.6 30.5,123.7 34.4,129.5 40.3,135.1 
	46.3,138.7 52.8,141.2 58.5,142.6 65.7,142.5 70.7,141.8 74.8,140.3 78.7,138.4 "/>
<polygon id="XMLID_2_" class="st3" points="42.7,94.7 40.9,98 40,100.7 39.3,104.2 39.5,108.2 40.3,112 41.7,115.3 43.8,118.4 
	47,121.4 50.2,123.4 53.7,124.7 56.7,125.4 60.6,125.4 63.3,125 65.5,124.2 67.6,123.2 69.3,122.1 71.6,120.6 73.6,118.5 75,116.7 
	76.1,114.7 77,112.4 77.9,109.8 78.3,107.2 78.3,104.6 77.4,99.9 74.9,95.2 71.4,91.7 69,89.8 65.9,88.3 62.9,87.3 60,86.7 
	57.1,86.6 52.9,87.2 49.6,88.5 47.2,89.9 45.1,91.8 "/>
<polygon id="XMLID_1_" class="st4" points="67.5,89.5 66.8,90.7 66.5,91.6 66.3,92.9 66.3,94.3 66.6,95.6 67.1,96.8 67.8,97.9 
	69,98.9 70.1,99.6 71.3,100.1 72.4,100.4 73.8,100.4 74.7,100.2 75.5,99.9 76.2,99.6 76.9,99.2 77.7,98.6 78.3,97.9 78.8,97.3 
	79.2,96.6 79.6,95.8 79.9,94.9 80,93.9 80,93 79.7,91.3 78.8,89.7 77.6,88.5 76.7,87.8 75.7,87.3 74.6,86.9 73.6,86.7 72.5,86.7 
	71,86.9 69.9,87.3 69,87.8 68.3,88.5 "/>
</svg>
